<?xml version="1.0" standalone="no"?>
<!DOCTYPE svg PUBLIC "-//W3C//DTD SVG 1.1//EN" "http://www.w3.org/Graphics/SVG/1.1/DTD/svg11.dtd" >
<svg>
<metadata>
Created by FontForge 20090914 at Wed Jun 23 07:22:01 2021
 By www-data
Version 2. Beaufort is a trademark of Shinn Type Foundry. Copyright 2002 by Nick Shinn. Published 2002 by Shinn Type Foundry.
</metadata>
<defs>
<font id="BeaufortBold" horiz-adv-x="555" >
  <font-face 
    font-family="Beaufort"
    font-weight="700"
    font-stretch="normal"
    units-per-em="1000"
    panose-1="0 0 7 0 0 0 0 0 0 0"
    ascent="800"
    descent="-200"
    x-height="466"
    cap-height="666.001"
    bbox="-141 -220 1060 920"
    underline-thickness="20"
    underline-position="-123"
    unicode-range="U+0020-U+F002"
  />
<missing-glyph horiz-adv-x="500" 
d="M63 0v780h375v-780h-375zM125 63h250v655h-250v-655z" />
    <glyph glyph-name=".notdef" horiz-adv-x="500" 
d="M63 0v780h375v-780h-375zM125 63h250v655h-250v-655z" />
    <glyph glyph-name="space" unicode=" " horiz-adv-x="213" 
 />
    <glyph glyph-name="exclam" unicode="!" horiz-adv-x="300" 
d="M263 666c-7.33301 -2 -14 -7.66602 -20 -16.999c-13.333 -22 -21.666 -59.333 -24.999 -112l-12 -203c-2.66699 -41.333 -12.334 -79.333 -29.001 -114l-26 -43l-26 42c-17.333 35.333 -27.333 73.666 -30 114.999l-12 203c-4.66699 78 -19.667 121 -45 129h225z
M228 59.001c0 -21.333 -7.16699 -38.833 -21.5 -52.5s-33.166 -20.5 -56.499 -20.5s-42 6.83301 -56 20.5s-21 31.167 -21 52.5s7 38.833 21 52.5s32.667 20.5 56 20.5s42.166 -6.83301 56.499 -20.5s21.5 -31.167 21.5 -52.5z" />
    <glyph glyph-name="quotedbl" unicode="&#x22;" horiz-adv-x="530" 
d="M426 508c0 -61.333 -19 -120.333 -57 -177h-3c-36 58 -54 117 -54 177v158h114v-158zM218 508c0 -61.333 -19 -120.333 -57 -177h-3c-36 58 -54 117 -54 177v158h114v-158z" />
    <glyph glyph-name="numbersign" unicode="#" horiz-adv-x="563" 
d="M533 413h-102l-34 -154h102v-56h-116l-46 -203h-64l44 203h-142l-47 -203h-64l45 203h-92v56h105l34 154h-99v56h112l41 197h67l-43 -197h143l41 197h68l-42 -197h89v-56zM364 413h-142l-34 -154h143z" />
    <glyph glyph-name="dollar" unicode="$" 
d="M504 192c0 -52 -16.668 -94.3389 -50.001 -127.006c-30 -28.667 -70.667 -47.667 -122 -57v-108h-104v103c-65.333 5.33301 -121.333 22.333 -168 51v204c15.333 -51.333 45.666 -91.666 90.999 -120.999c39.333 -26 81.333 -39 126 -39
c29.333 0 53.666 6.16699 72.999 18.5s29 29.5 29 51.5c0 34.667 -26.667 66.334 -80 95.001l-147 77c-53.333 36.667 -80 82.334 -80 137.001c0 50 15.333 91 46 123c26.667 28 63.334 47 110.001 57v83h104v-79c50 -5.33301 93.667 -19.666 131 -42.999v-170
c-13.333 39.333 -37.666 70 -72.999 92c-31.333 20 -65 30 -101 30c-27.333 0 -50.166 -6.16699 -68.499 -18.5s-27.5 -29.5 -27.5 -51.5c0 -28.667 27 -56.667 81 -84c89.333 -45.333 139 -71.666 149 -78.999c54 -39.333 81 -87.666 81 -144.999z" />
    <glyph glyph-name="percent" unicode="%" horiz-adv-x="741" 
d="M715 169c0 -48.667 -13.332 -90.332 -39.999 -124.999c-29.333 -38 -68.333 -57 -117 -57s-87.334 19 -116.001 57c-25.333 34 -38 75.667 -38 125s13 90.666 39 123.999c28 38 66.333 57 115 57c49.333 0 88.333 -19 117 -57c26.667 -34 40 -75.333 40 -124z
M620.001 666.002l-418 -666h-80l419 666h79zM337.001 501.002c0 -49.333 -13.333 -91 -40 -125c-29.333 -38.667 -68.333 -58 -117 -58s-87.334 19.333 -116.001 58c-26 34 -39 75.667 -39 125c0 48.667 13 90 39 124c28.667 37.333 67.334 56 116.001 56
c49.333 0 88.333 -18.667 117 -56c26.667 -34 40 -75.333 40 -124zM615.001 171.002c0 76 -18.667 114 -56 114s-56 -37.667 -56 -113c0 -76 19 -114 57 -114c36.667 0 55 37.667 55 113zM237.001 500.002c0 75.333 -19 113 -57 113c-36.667 0 -55 -37.333 -55 -112
c0 -76 18.667 -114 56 -114s56 37.667 56 113z" />
    <glyph glyph-name="ampersand" unicode="&#x26;" horiz-adv-x="800" 
d="M795 135c-14 -49.333 -29.668 -85.333 -47.001 -108c-21.333 -28.667 -49 -43 -83 -43c-35.333 0 -91.666 26 -168.999 78c-72 -52.667 -147.333 -79 -226 -79c-160 0 -240 57.333 -240 172c0 70 48.333 133.333 145 190c-55.333 68 -83 122.333 -83 163
c0 54 21 97 63 129c38 30 85 45 141 45c54.667 0 100.667 -12.667 138 -38c41.333 -28 62 -66 62 -114c0 -40 -15 -76.333 -45 -109c-21.333 -24 -54.666 -49.667 -99.999 -77c53.333 -54 105.666 -101 156.999 -141c47.333 56 71 108 71 156
c0 24.667 -10 44.334 -30 59.001h214c-29.333 -16 -51 -45.667 -65 -89c-21.333 -64.667 -56.333 -125.334 -105 -182.001c56 -36 100.667 -54 134 -54c22 0 44.667 14 68 42zM375.999 520c0 20 -8.33203 36.834 -24.999 50.501s-36.334 20.5 -59.001 20.5
c-20.667 0 -38.167 -6 -52.5 -18s-21.5 -29 -21.5 -51c0 -18.667 23 -57.334 69 -116.001c59.333 38.667 89 76.667 89 114zM408 123.001c-57.333 46 -113.333 97.668 -168 155.001c-42.667 -31.333 -64 -63 -64 -95c0 -28.667 10.667 -52.834 32 -72.501s50 -29.5 86 -29.5
s74 14 114 42z" />
    <glyph glyph-name="quotesingle" unicode="'" horiz-adv-x="262" 
d="M188 508c0 -61.333 -18.667 -120.333 -56 -177h-4c-36 58 -54 117 -54 177v158h114v-158z" />
    <glyph glyph-name="parenleft" unicode="(" horiz-adv-x="342" 
d="M334 -203c-88.667 26 -161.667 82.666 -219 169.999c-56 85.333 -84 180.333 -84 285c0 105.333 28 200.5 84 285.5s128.667 140.833 218 167.5c-54 -33.333 -96 -93.666 -126 -180.999c-28 -79.333 -42 -168.666 -42 -267.999c0 -98.667 14.333 -189.334 43 -272.001
c30.667 -86.667 72.667 -149 126 -187z" />
    <glyph glyph-name="parenright" unicode=")" horiz-adv-x="342" 
d="M310 249c0 -105.333 -28 -200.331 -84 -284.998s-128.667 -140.334 -218 -167.001c54 34 96 94.333 126 181c28 80 42 169.333 42 268c0 99.333 -14.333 190 -43 272c-30 87.333 -71.667 149.666 -125 186.999c89.333 -26.667 162.333 -84 219 -172
c55.333 -85.333 83 -180 83 -284z" />
    <glyph glyph-name="asterisk" unicode="*" horiz-adv-x="417" 
d="M402 562c-62.667 -11.333 -114.666 -30.668 -155.999 -58.001c45.333 -31.333 96.333 -51.333 153 -60l-76 -112c-13.333 28 -24 48.333 -32 61c-17.333 26.667 -40 53 -68 79c-9.33301 -38 -14 -69.667 -14 -95c0 -22.667 2.66699 -49 8 -79l-124 40
c20 22 34.667 39 44 51c18.667 27.333 35.334 59.333 50.001 96c-52 -4.66699 -104.667 -21 -158 -49v137c24 -13.333 43.667 -22.666 59 -27.999c28.667 -10.667 61.667 -17.667 99 -21c-20.667 53.333 -51.334 102.333 -92.001 147l125 41c-6 -34 -9 -63 -9 -87
c0 -26 4 -55 12 -87c45.333 41.333 79.666 87.333 102.999 138z" />
    <glyph glyph-name="plus" unicode="+" horiz-adv-x="689" 
d="M620 240h-229v-240h-91v240h-230v89h230v238h91v-238h229v-89z" />
    <glyph glyph-name="comma" unicode="," horiz-adv-x="256" 
d="M231 22c0 -52 -16.332 -97.667 -48.999 -137c-38.667 -45.333 -91.334 -69 -158.001 -71c30 13.333 55.833 34.833 77.5 64.5s32.5 60.167 32.5 91.5c0 12 -1.33301 21.667 -4 29c-5.33301 -2 -11 -3 -17 -3c-21.333 0 -38 7 -50 21s-18 31 -18 51
c0 22.667 7.5 42.5 22.5 59.5s35.833 25.5 62.5 25.5c31.333 0 56 -12.667 74 -38s27 -56.333 27 -93z" />
    <glyph glyph-name="hyphen" unicode="-" horiz-adv-x="333" 
d="M293 209h-251v94h251v-94z" />
    <glyph glyph-name="hyphen" unicode="&#x2010;" horiz-adv-x="333" 
d="M293 209h-251v94h251v-94z" />
    <glyph glyph-name="period" unicode="." horiz-adv-x="256" 
d="M216 70c0 -24 -8 -44 -24 -60s-37 -24 -63 -24s-47.167 8 -63.5 24s-24.5 36 -24.5 60s8.16699 44 24.5 60s37.5 24 63.5 24s47 -8 63 -24s24 -36 24 -60z" />
    <glyph glyph-name="slash" unicode="/" horiz-adv-x="469" 
d="M442 681l-300 -696h-112l303 696h109z" />
    <glyph glyph-name="zero" unicode="0" 
d="M521 347c0 -108 -21 -194.333 -63 -259c-43.333 -68.667 -104 -103 -182 -103c-74.667 0 -133.334 29 -176.001 87s-64 139 -64 243c0 110 21.667 198.5 65 265.5s103.333 100.5 180 100.5c74.667 0 133.334 -30.667 176.001 -92s64 -142 64 -242zM384 295
c0 191.333 -39 287 -117 287c-65.333 0 -98 -70.667 -98 -212c0 -191.333 39 -287 117 -287c65.333 0 98 70.667 98 212z" />
    <glyph glyph-name="one" unicode="1" 
d="M449 0h-247c37.333 22 56 67.333 56 136v377l-173 -113v119l226 152h81v-535c0 -68 19 -113.333 57 -136z" />
    <glyph glyph-name="two" unicode="2" 
d="M533 155l-22.999 -154.999h-490l165 183c64.667 71.333 109 125.666 133 162.999c29.333 46 44 88 44 126c0 36.667 -11 65.334 -33 86.001c-20.667 18.667 -46 28 -76 28c-28.667 0 -51.334 -7.33301 -68.001 -22s-25 -32 -25 -52c0 -35.333 19.333 -56.666 58 -63.999
l-89 -98c-26.667 7.33301 -49 23.166 -67 47.499s-27 52.5 -27 84.5c0 53.333 20.333 98.666 61 135.999c46 42 109 63 189 63c60.667 0 111 -15.667 151 -47c44.667 -35.333 67 -84 67 -146c0 -46 -20.333 -98.667 -61 -158c-26.667 -39.333 -78 -101 -154 -185l-37 -41
h165c56.667 0 95.667 17 117 51z" />
    <glyph glyph-name="three" unicode="3" 
d="M518 171c0 -58.667 -26.9971 -105.333 -80.9971 -140c-47.333 -30.667 -104.333 -46 -171 -46c-128 0 -206 43.667 -234 131l125 83c3.33301 -35.333 17 -63.833 41 -85.5s52.333 -32.5 85 -32.5c27.333 0 50.5 7.5 69.5 22.5s28.5 34.5 28.5 58.5
c0 38 -21.167 68.833 -63.5 92.5s-96.5 35.834 -162.5 36.501l25 85c15.333 -2 33.666 -3 54.999 -3c39.333 0 72 10.333 98 31s39 48 39 82c0 29.333 -10.833 53.666 -32.5 72.999s-48.834 29 -81.501 29c-26.667 0 -48.834 -5.83301 -66.501 -17.5
s-26.5 -26.5 -26.5 -44.5c0 -17.333 6.66699 -30 20 -38l-121 -53c-16 19.333 -24 42 -24 68c0 58 27 103.333 81 136c46.667 28 102 42 166 42c58 0 107.333 -14 148 -42c46 -32 69 -75.333 69 -130c0 -42 -12.833 -78.833 -38.5 -110.5s-59.5 -52.167 -101.5 -61.5
c102.667 -28 154 -83.333 154 -166z" />
    <glyph glyph-name="four" unicode="4" 
d="M532 145h-80v-40c0 -52.667 11.333 -87.667 34 -105h-191c20.667 18 31 53.333 31 106v39h-306v54l256 467h176v-420h80v-101zM326 246v311l-173 -311h173z" />
    <glyph glyph-name="five" unicode="5" 
d="M515 210c0 -72 -23.499 -127.667 -70.499 -167s-109.833 -59 -188.5 -59c-58.667 0 -108.334 13 -149.001 39c-37.333 23.333 -62 53.333 -74 90l124 85c5.33301 -39.333 19.666 -69.666 42.999 -90.999c21.333 -18.667 46 -28 74 -28c72 0 108 34.667 108 104
c0 41.333 -15.667 73.666 -47 96.999c-33.333 24.667 -81.333 37 -144 37h-119l55 349h239c56.667 0 96.334 6.66699 119.001 20l-19 -123h-239l-26 -149h49c80 0 143.333 -16.667 190 -50c50 -36 75 -87.333 75 -154z" />
    <glyph glyph-name="six" unicode="6" 
d="M522 231c0 -66 -19.666 -121.999 -58.999 -167.999c-44.667 -52.667 -106.334 -79 -185.001 -79c-77.333 0 -137 24 -179 72c-40 46 -60 108.667 -60 188c0 88.667 23.167 172.667 69.5 252s107.833 138.666 184.5 177.999l200 -18c-152 -53.333 -258 -144 -318 -272
l6 -4c36 46 82.667 69 140 69c62.667 0 112.667 -22.333 150 -67c34 -40.667 51 -91 51 -151zM398.001 199.001c0 41.333 -10.667 76.333 -32 105c-23.333 30.667 -53.333 46 -90 46c-31.333 0 -56.5 -11.667 -75.5 -35s-28.5 -52.333 -28.5 -87c0 -42 11.333 -77 34 -105
c23.333 -30 54 -45 92 -45c29.333 0 53.333 11.5 72 34.5s28 51.833 28 86.5z" />
    <glyph glyph-name="seven" unicode="7" 
d="M548 666l-148.999 -319c-60.667 -130 -92 -245.667 -94 -347h-176c53.333 148 135.666 336.667 246.999 566h-219c-56.667 0 -98.667 -22.667 -126 -68l22 168h495z" />
    <glyph glyph-name="eight" unicode="8" 
d="M522 185c0 -62.667 -25.667 -112.669 -77 -150.002c-47.333 -34 -105.333 -51 -174 -51c-66.667 0 -121.667 13.667 -165 41c-50 32.667 -75 79.667 -75 141c0 39.333 12.5 74.5 37.5 105.5s60.5 53.167 106.5 66.5c-78 32.667 -117 86.334 -117 161.001
c0 54.667 23.667 99.334 71 134.001c43.333 32 95 48 155 48c58.667 0 107.667 -14 147 -42c43.333 -30 65 -70 65 -120c0 -34 -9.33301 -64.333 -28 -91c-20 -30.667 -49 -52 -87 -64c94 -33.333 141 -93 141 -179zM372 488.998c0 28.667 -9 52.833 -27 72.5
s-44 29.5 -78 29.5c-56.667 0 -85 -28.667 -85 -86c0 -28.667 9 -53 27 -73c19.333 -22 45.333 -33 78 -33c27.333 0 48.333 8.5 63 25.5s22 38.5 22 64.5zM391 176.997c0 32 -10.333 59 -31 81c-24 24 -56 36 -96 36c-32 0 -56.667 -9.5 -74 -28.5s-26 -42.833 -26 -71.5
c0 -32 10 -58.667 30 -80c22.667 -23.333 53.667 -35 93 -35c69.333 0 104 32.667 104 98z" />
    <glyph glyph-name="nine" unicode="9" 
d="M517 418c0 -88 -23.168 -171.333 -69.501 -250s-107.833 -137.667 -184.5 -177l-200 18c152.667 54 258.667 144 318 270l-5 4c-35.333 -45.333 -82 -68 -140 -68c-63.333 0 -113.666 22.333 -150.999 67c-34 40.667 -51 91 -51 151c0 66 19.667 122.333 59 169
c44.667 52.667 106 79 184 79s138 -24.667 180 -74c40 -46 60 -109 60 -189zM383.999 435c0 42 -11.667 77.667 -35 107s-54 44 -92 44c-29.333 0 -53 -11.833 -71 -35.5s-27 -52.834 -27 -87.501c0 -41.333 11.167 -76.666 33.5 -105.999s51.833 -44 88.5 -44
c31.333 0 56.333 11.667 75 35s28 52.333 28 87z" />
    <glyph glyph-name="colon" unicode=":" horiz-adv-x="256" 
d="M215 371c0 -24 -8 -44 -24 -60s-37 -24 -63 -24s-47.167 8 -63.5 24s-24.5 36 -24.5 60s8.16699 43.833 24.5 59.5s37.5 23.5 63.5 23.5s47 -7.83301 63 -23.5s24 -35.5 24 -59.5zM215 70c0 -24 -8 -44 -24 -60s-37 -24 -63 -24s-47.167 8 -63.5 24s-24.5 36 -24.5 60
s8.16699 44 24.5 60s37.5 24 63.5 24s47 -8 63 -24s24 -36 24 -60z" />
    <glyph glyph-name="semicolon" unicode=";" horiz-adv-x="256" 
d="M224 371c0 -24 -8 -44 -24 -60s-37 -24 -63 -24s-47.167 8 -63.5 24s-24.5 36 -24.5 60s8.16699 43.833 24.5 59.5s37.5 23.5 63.5 23.5s47 -7.83301 63 -23.5s24 -35.5 24 -59.5zM235 22c0 -52 -16.332 -97.667 -48.999 -137c-38.667 -45.333 -91.334 -69 -158.001 -71
c30 13.333 55.833 34.833 77.5 64.5s32.5 60.167 32.5 91.5c0 12 -1.33301 21.667 -4 29c-5.33301 -2 -11 -3 -17 -3c-21.333 0 -38 7 -50 21s-18 31 -18 51c0 22.667 7.5 42.5 22.5 59.5s35.833 25.5 62.5 25.5c31.333 0 56 -12.667 74 -38s27 -56.333 27 -93z" />
    <glyph glyph-name="less" unicode="&#x3c;" horiz-adv-x="689" 
d="M587 -15l-485 267v67l485 268v-101l-372 -201v-6l372 -192v-102z" />
    <glyph glyph-name="equal" unicode="=" horiz-adv-x="689" 
d="M620 348h-550v89h550v-89zM620 134h-550v89h550v-89z" />
    <glyph glyph-name="greater" unicode="&#x3e;" horiz-adv-x="689" 
d="M586 252l-484 -267v102l372 200v5l-372 193v102l484 -268v-67z" />
    <glyph glyph-name="question" unicode="?" horiz-adv-x="460" 
d="M445 530c0 -42 -17 -81.665 -51 -118.998l-96 -85c-34 -30.667 -51 -59.334 -51 -86.001c0 -22.667 10.333 -37.334 31 -44.001c-11.333 -13.333 -28.333 -20 -51 -20c-26.667 0 -49.334 7.33301 -68.001 22c-20.667 16.667 -31 39 -31 67c0 36 14.667 70 44 102
l83.5 75.5c28.333 25.667 42.5 50.5 42.5 74.5c0 20.667 -7.16699 37 -21.5 49s-32.5 18 -54.5 18c-28 0 -55 -9 -81 -27c-30 -20 -53.667 -48.333 -71 -85v167c48.667 29.333 108.334 44 179.001 44c59.333 0 106.833 -13.5 142.5 -40.5s53.5 -64.5 53.5 -112.5z
M292 58.002c0 -20.667 -7.16699 -37.834 -21.5 -51.501s-32.833 -20.5 -55.5 -20.5s-41.167 6.83301 -55.5 20.5s-21.5 30.834 -21.5 51.501s7.16699 38 21.5 52s32.833 21 55.5 21s41.167 -7 55.5 -21s21.5 -31.333 21.5 -52z" />
    <glyph glyph-name="at" unicode="@" horiz-adv-x="931" 
d="M874 308c0 -86 -24.3281 -159.164 -72.9951 -219.497s-108 -90.5 -178 -90.5c-34.667 0 -60.834 6.5 -78.501 19.5s-28.167 35.5 -31.5 67.5c-30 -58 -76.667 -87 -140 -87c-38.667 0 -69.334 14.833 -92.001 44.5s-34 70.5 -34 122.5
c0 73.333 19.667 139.666 59 198.999c44 68 101.333 102 172 102c22.667 0 43.667 -3 63 -9c28.667 -8.66699 49.334 -13 62.001 -13c18.667 0 40 5.66699 64 17l-55 -324c-1.33301 -8 -2 -17 -2 -27c0 -38 13.667 -57 41 -57c40 0 76 20.667 108 62
c36.667 48 55 112.333 55 193c0 86.667 -29.667 156.334 -89 209.001c-57.333 50 -131 75 -221 75c-104.667 0 -194 -34 -268 -102c-79.333 -72.667 -119 -167.334 -119 -284.001c0 -103.333 34.667 -187 104 -251s162 -96 278 -96c127.333 0 231.666 41 312.999 123l45 -30
c-42.667 -44.667 -95.5 -79.334 -158.5 -104.001s-129.167 -37 -198.5 -37c-142.667 0 -253.334 36.667 -332.001 110c-74 69.333 -111 162.333 -111 279c0 132.667 45.667 240 137 322c85.333 77.333 190.666 116 315.999 116c103.333 0 188.666 -28.333 255.999 -85
c72 -60.667 108 -142.334 108 -245.001zM526.005 330.003c0 47.333 -18.001 71 -54.001 71c-28 0 -53.333 -27.333 -76 -82c-20 -50.667 -30 -101.667 -30 -153c0 -64.667 17 -97 51 -97c30.667 0 56.334 28 77.001 84c21.333 58.667 32 117.667 32 177z" />
    <glyph glyph-name="A" unicode="A" horiz-adv-x="747" 
d="M745 0h-275.001c28.667 4 43 19.333 43 46c0 5.33301 -5.66699 23.666 -17 54.999l-17 47h-263l-17 -46c-9.33301 -25.333 -14 -43 -14 -53c0 -29.333 15.333 -45.666 46 -48.999h-228c9.33301 2 19 7.33301 29 16c24 22 46.333 59.667 67 113l211 537h118l219 -541
c30.667 -76 63.334 -117.667 98.001 -125zM443.999 235l-99 257l-96 -257h195z" />
    <glyph glyph-name="B" unicode="B" horiz-adv-x="626" 
d="M592 179c0 -48.667 -17.001 -89.667 -51.001 -123c-37.333 -37.333 -88 -56 -152 -56h-351c34.667 7.33301 52 46.333 52 117v434c0 68.667 -20 107 -60 115h341c60.667 0 108.334 -16.667 143.001 -50c30.667 -30 46 -67 46 -111c0 -35.333 -10.333 -67 -31 -95
c-22 -30 -51.333 -49.667 -88 -59c46.667 -7.33301 84 -28 112 -62c26 -31.333 39 -68 39 -110zM410.999 487c0 25.333 -7.66602 45.999 -22.999 61.999c-17.333 18 -41 27 -71 27h-85v-188h89c29.333 0 51.666 9.33301 66.999 28s23 42.334 23 71.001zM442 189.999
c0 72.667 -39.667 109 -119 109h-91v-207h102c72 0 108 32.667 108 98z" />
    <glyph glyph-name="C" unicode="C" horiz-adv-x="625" 
d="M592 78c-24 -28 -55.001 -50.332 -93.001 -66.999c-40 -17.333 -81.667 -26 -125 -26c-108.667 0 -193.334 34 -254.001 102c-55.333 61.333 -83 138.666 -83 231.999c0 98.667 30.333 182 91 250c67.333 74.667 158 112 272 112c70.667 0 130.334 -13 179.001 -39v-207
c-15.333 47.333 -40.666 84 -75.999 110c-32.667 24 -70.667 36 -114 36c-60 0 -108.5 -23 -145.5 -69s-55.5 -104 -55.5 -174c0 -71.333 18.667 -130.5 56 -177.5s87 -70.5 149 -70.5c36 0 72 9.33301 108 28s66.333 44 91 76v-116z" />
    <glyph glyph-name="D" unicode="D" horiz-adv-x="722" 
d="M685 340c0 -96 -28 -174.665 -84 -235.998c-62.667 -69.333 -152.667 -104 -270 -104h-293c37.333 7.33301 56 48.666 56 123.999v430c0 67.333 -21.333 104.666 -64 111.999h311c104 0 187.333 -30 250 -90s94 -138.667 94 -236zM534 332.002
c0 74.667 -18.667 133.333 -56 176c-39.333 45.333 -96.333 68 -171 68h-69v-484h98c64 0 114 24.667 150 74c32 44 48 99.333 48 166z" />
    <glyph glyph-name="E" unicode="E" horiz-adv-x="551" 
d="M528 203l-33 -203h-460c38 7.33301 57 47 57 119v436c0 66 -22 103 -66 111h457v-190c-13.333 66.667 -53 100 -119 100h-130v-194h113c46 0 72.333 17.333 79 52v-194c-6 34 -31.667 51 -77 51h-115v-199l139 1c40 0 72 8.66699 96 26s43.667 45.333 59 84z" />
    <glyph glyph-name="F" unicode="F" horiz-adv-x="508" 
d="M485 478c-14 65.333 -54.999 97.999 -122.999 97.999h-126v-194h110c46.667 0 73 17.667 79 53v-197c-7.33301 35.333 -33.333 53 -78 53h-111v-182c0 -44 8.33301 -75.333 25 -94c9.33301 -10 18.666 -15 27.999 -15h-252c37.333 6.66699 56 44.334 56 113.001v443
c0 65.333 -21 102 -63 110h455v-188z" />
    <glyph glyph-name="G" unicode="G" horiz-adv-x="677" 
d="M665 300c-37.333 -6.66699 -56 -37.334 -56 -92.001v-183c-62.667 -26.667 -143 -40 -241 -40c-106 0 -190 34.333 -252 103c-56 62 -84 138.667 -84 230c0 97.333 31.667 180.333 95 249c70 76 164.667 114 284 114c78 0 141.667 -13 191 -39v-198
c-13.333 44 -39 78.333 -77 103c-35.333 23.333 -76.333 35 -123 35c-66 0 -119 -23.5 -159 -70.5s-60 -105.833 -60 -176.5c0 -69.333 18.667 -127.666 56 -174.999c39.333 -49.333 90.333 -74 153 -74c28.667 0 55 4 79 12v107c0 55.333 -19.333 87 -58 95h252z" />
    <glyph glyph-name="H" unicode="H" horiz-adv-x="740" 
d="M711 0l-251 0.000976562c36 6.66699 54 44 54 112v179h-287v-179c0 -68.667 18 -106 54 -112h-252c36 6.66699 54 44 54 112v442c0 67.333 -18 104.666 -54 111.999h252c-36 -7.33301 -54 -44.666 -54 -111.999v-172h287v172c0 67.333 -18 104.666 -54 111.999h251
c-35.333 -6.66699 -53 -44 -53 -112v-442c0 -68 17.667 -105.333 53 -112z" />
    <glyph glyph-name="I" unicode="I" horiz-adv-x="314" 
d="M281 0h-248c35.333 7.33301 53 42 53 104v455c0 62.667 -17.667 98.334 -53 107.001h248c-35.333 -8.66699 -53 -44.334 -53 -107.001v-455c0 -62 17.667 -96.667 53 -104z" />
    <glyph glyph-name="J" unicode="J" horiz-adv-x="516" 
d="M485 666c-35.333 -6.66699 -53 -42.667 -53 -108v-367c0 -138 -68.667 -207 -206 -207c-34.667 0 -69.334 6 -104.001 18c-31.333 10 -55.666 22.667 -72.999 38l1 146c38 -68.667 88.667 -103 152 -103c30 0 51.667 7.66699 65 23c14.667 18 22 49.333 22 94v360
c0 64.667 -19 100 -57 106h253z" />
    <glyph glyph-name="K" unicode="K" horiz-adv-x="712" 
d="M700 0l-228.998 0.000976562l-244 312v-201c0 -68 17.667 -105 53 -111h-250c35.333 7.33301 53 44.333 53 111v443c0 67.333 -17.667 104.666 -53 111.999h250c-35.333 -7.33301 -53 -44.666 -53 -111.999v-184l165 181c36 39.333 54 69.333 54 90
c0 16 -8.66699 24.333 -26 25h264c-12.667 -2.66699 -26.334 -8.33398 -41.001 -17.001c-36.667 -20 -76.334 -53 -119.001 -99l-165 -177l201 -253c57.333 -72 104 -112 140 -120z" />
    <glyph glyph-name="L" unicode="L" horiz-adv-x="547" 
d="M526 220l-34 -219.999h-458c32.667 7.33301 49 49 49 125v429c0 67.333 -17.667 104.666 -53 111.999h245c-36 -6.66699 -54 -44 -54 -112v-462h139c41.333 0 75.333 11 102 33c24 19.333 45.333 51 64 95z" />
    <glyph glyph-name="M" unicode="M" horiz-adv-x="879" 
d="M847 0l-241 -0.000976562c32.667 6.66699 49 44.667 49 114v379l-225 -508l-230 507v-373c0 -71.333 21.333 -111 64 -119h-232c42 8 63 48 63 120v439c0 64.667 -22 100.334 -66 107.001h245l177 -403l175 403h221c-37.333 -6 -56 -42.333 -56 -109v-443
c0 -68.667 18.667 -106.667 56 -114z" />
    <glyph glyph-name="N" unicode="N" horiz-adv-x="723" 
d="M693 666c-36 -7.33301 -54 -44.001 -54 -110.001v-556h-104c-6 16 -13.667 33 -23 51c-22 42 -50 84 -84 126l-223 272v-340c0 -65.333 20.667 -101.666 62 -108.999h-225c34.667 7.33301 52 44 52 110v439c0 32 -14.333 60.667 -43 86c-15.333 14 -31.333 24.333 -48 31
h212l315 -393v283c0 66 -19 102.667 -57 110h220z" />
    <glyph glyph-name="O" unicode="O" horiz-adv-x="745" 
d="M708 343c0 -100 -31.333 -184.001 -94 -252.001c-64.667 -70.667 -148.667 -106 -252 -106c-98.667 0 -178 33 -238 99c-58 62.667 -87 142.334 -87 239.001c0 101.333 32.5 186.333 97.5 255s148.5 103 250.5 103c98 0 177 -32.667 237 -98
c57.333 -62.667 86 -142.667 86 -240zM563 315.999c0 76.667 -17.333 139.333 -52 188c-36.667 50.667 -86.667 76 -150 76c-52 0 -94.333 -19.333 -127 -58c-34.667 -41.333 -52 -97.333 -52 -168c0 -80.667 18.167 -145.167 54.5 -193.5s85.833 -72.5 148.5 -72.5
c52 0 94.667 20.5 128 61.5s50 96.5 50 166.5z" />
    <glyph glyph-name="P" unicode="P" horiz-adv-x="586" 
d="M561 463c0 -62.667 -21.332 -114 -63.999 -154c-44.667 -42.667 -104.667 -64 -180 -64c-33.333 0 -63 4 -89 12v-146c0 -68 20.333 -105 61 -111h-249c35.333 6 53 43 53 111v440c0 68 -20 106.333 -60 115h308c67.333 0 121.666 -20.333 162.999 -61
c38 -38.667 57 -86 57 -142zM414.001 459c0 34.667 -10.5 62.667 -31.5 84s-50.167 32 -87.5 32h-67v-226c23.333 -7.33301 48 -11 74 -11c35.333 0 62.833 11 82.5 33s29.5 51.333 29.5 88z" />
    <glyph glyph-name="Q" unicode="Q" horiz-adv-x="790" 
d="M803 96l-31.9961 -194.999c-6.66699 37.333 -26.334 62.666 -59.001 75.999s-91.334 20 -176.001 20c-25.333 0 -54 -1 -86 -3s-61.333 -3 -88 -3c-95.333 0 -173.5 31 -234.5 93s-91.5 142.333 -91.5 241s31 181.667 93 249c65.333 71.333 150.666 107 255.999 107
c96 0 173.833 -32.167 233.5 -96.5s89.5 -144.833 89.5 -241.5c0 -50 -9.33301 -97.5 -28 -142.5s-44 -81.833 -76 -110.5c72.667 6.66699 117.667 10 135 10c23.333 0 44.666 -1.33301 63.999 -4zM563.004 317.001c0 78.667 -18 142.168 -54 190.501
s-85.333 72.5 -148 72.5c-52 0 -94.333 -19.333 -127 -58c-34 -40.667 -51 -96.334 -51 -167.001c0 -81.333 18.167 -146 54.5 -194s85.5 -72 147.5 -72c52 0 94.667 20.5 128 61.5s50 96.5 50 166.5z" />
    <glyph glyph-name="R" unicode="R" horiz-adv-x="638" 
d="M635 0l-214.998 -0.000976562l-111 205c-12.667 23.333 -20.334 37 -23.001 41c-12 16 -24.667 24 -38 24h-19v-159c0 -67.333 18 -104.333 54 -111h-245c36 6.66699 54 43.667 54 111v440c0 68 -20.333 106.333 -61 115h293c74.667 0 133.667 -20 177 -60
c40 -36.667 60 -81.667 60 -135c0 -44.667 -14 -83.667 -42 -117c-30.667 -36.667 -72.334 -58 -125.001 -64c16.667 -7.33301 34 -26.666 52 -57.999l90 -157c22.667 -40 55.667 -65 99 -75zM417.002 466.999c0 30 -9.99902 55.332 -29.999 75.999c-22 22 -52 33 -90 33
h-69v-224h71c39.333 0 69.666 11.667 90.999 35c18 20.667 27 47.334 27 80.001z" />
    <glyph glyph-name="S" unicode="S" horiz-adv-x="514" 
d="M478 185c0 -63.333 -23.334 -112.999 -70.001 -148.999c-44 -34 -102.333 -51 -175 -51c-74.667 0 -138 16.667 -190 50v212c16 -56 43 -98.333 81 -127c32.667 -24.667 70.334 -37 113.001 -37c30.667 0 56 7 76 21s30 32.667 30 56c0 30 -16.667 57 -50 81
c-6.66699 4.66699 -43 24.667 -109 60c-43.333 23.333 -75 46 -95 68c-28.667 31.333 -43 68.666 -43 111.999c0 60.667 21.5 109 64.5 145s98.5 54 166.5 54c62 0 114 -15 156 -45v-176c-13.333 42 -36.333 73.667 -69 95c-28 19.333 -60.333 29 -97 29
c-30.667 0 -54 -7 -70 -21s-24 -31 -24 -51c0 -32.667 26.333 -63 79 -91c89.333 -47.333 138.333 -74.333 147 -81c52.667 -40 79 -91.333 79 -154z" />
    <glyph glyph-name="T" unicode="T" horiz-adv-x="641" 
d="M618 479c-14.667 40.667 -31.333 67.334 -50 80.001c-17.333 10.667 -47 16 -89 16h-86v-463c0 -68.667 17.667 -106 53 -112h-250c35.333 5.33301 53 42.666 53 111.999v463h-87c-41.333 0 -70.333 -5 -87 -15c-20.667 -12 -38 -39 -52 -81l16 187h565z" />
    <glyph glyph-name="U" unicode="U" horiz-adv-x="698" 
d="M674 666c-38.667 -6 -57.999 -43.333 -57.999 -112v-315c0 -169.333 -87 -254 -261 -254c-182.667 0 -274 81.333 -274 244v325c0 68 -17.667 105.333 -53 112h250c-35.333 -6.66699 -53 -43 -53 -109v-322c0 -54.667 11 -93.667 33 -117s57 -35 105 -35
c47.333 0 81.166 12.333 101.499 37s30.5 63 30.5 115v319c0 68 -19.667 105.333 -59 112h238z" />
    <glyph glyph-name="V" unicode="V" horiz-adv-x="739" 
d="M729 666c-10 -2 -20 -7.33203 -30 -15.999c-23.333 -21.333 -45.333 -58 -66 -110l-212 -540h-102l-218 545c-29.333 73.333 -61.333 113.666 -96 120.999h272c-28.667 -3.33301 -43 -18.333 -43 -45c0 -8 5.66699 -26.333 17 -55l140 -352l135 356
c8 21.333 12 37.333 12 48c0 28.667 -14.667 44.667 -44 48h235z" />
    <glyph glyph-name="W" unicode="W" horiz-adv-x="1032" 
d="M1031 666c-11.333 -2.66699 -22 -8.33301 -32 -17c-25.333 -21.333 -46.333 -57.333 -63 -108l-179 -541h-109l-128 387l-134 -387h-107l-182 546c-24.667 73.333 -56 113.333 -94 120h272c-23.333 -4 -35 -22 -35 -54c0 -16.667 4 -37 12 -61l109 -328l113 312l-8 24
c-21.333 64 -44.333 99.667 -69 107h241c-26 -4.66699 -39 -23.667 -39 -57c0 -16.667 3.66699 -36 11 -58l109 -327l109 329c7.33301 22 11 41 11 57c0 33.333 -13.667 52 -41 56h233z" />
    <glyph glyph-name="X" unicode="X" horiz-adv-x="694" 
d="M690 0h-288c22 3.33301 33 16.333 33 39c0 18 -12.333 46 -37 84l-67 103l-70 -101c-28.667 -41.333 -43 -70.666 -43 -87.999c0 -22 9.66699 -34.333 29 -37h-243c9.33301 2 20.333 7.66699 33 17c28.667 21.333 61.667 58.666 99 111.999l134 191l-151 228
c-46.667 70 -85 109.333 -115 118h282c-20.667 -4.66699 -31 -17.334 -31 -38.001c0 -17.333 11 -43 33 -77l73 -112l77 109c26 36.667 39 64.334 39 83.001c0 19.333 -8.66699 31 -26 35h238c-9.33301 -2.66699 -19.666 -8 -30.999 -16
c-27.333 -19.333 -57 -51.333 -89 -96l-148 -208l145 -219c49.333 -74 90.666 -116.333 123.999 -127z" />
    <glyph glyph-name="Y" unicode="Y" horiz-adv-x="670" 
d="M671 666c-8 -2.66699 -17.002 -8.33203 -27.002 -16.999c-23.333 -20 -48.666 -53.333 -75.999 -100l-160 -269v-168c0 -68 17.333 -105.333 52 -112h-250c36 6.66699 54 44 54 112v163l-158 276c-39.333 69.333 -74.666 107.666 -105.999 114.999h272
c-21.333 -2.66699 -32 -15.334 -32 -38.001c0 -19.333 8.33301 -43.333 25 -72l95 -164l85 147c24 41.333 36 71 36 89c0 22.667 -10 35.334 -30 38.001h220z" />
    <glyph glyph-name="Z" unicode="Z" horiz-adv-x="609" 
d="M584 231l-21 -231.001h-541l325 575h-161c-45.333 0 -79.333 -10 -102 -30c-18.667 -16.667 -32.667 -45 -42 -85v206h517l-322 -574h186c40 0 72.667 11.667 98 35c22.667 20.667 43.667 55.334 63 104.001z" />
    <glyph glyph-name="bracketleft" unicode="[" horiz-adv-x="286" 
d="M253 -173h-217v854h217v-71h-115v-710h115v-73z" />
    <glyph glyph-name="backslash" unicode="\" horiz-adv-x="469" 
d="M440 -15h-110l-301 696h108z" />
    <glyph glyph-name="bracketright" unicode="]" horiz-adv-x="286" 
d="M250 -173h-217v73h114v710h-114v71h217v-854z" />
    <glyph glyph-name="asciicircum" unicode="^" horiz-adv-x="689" 
d="M602 179h-104l-155 401h-5l-147 -401h-103l211 524h92z" />
    <glyph glyph-name="underscore" unicode="_" horiz-adv-x="564" 
d="M559 -136h-555v54h555v-54z" />
    <glyph glyph-name="grave" unicode="`" horiz-adv-x="477" 
d="M307 506l-226 177h167z" />
    <glyph glyph-name="a" unicode="a" horiz-adv-x="507" 
d="M525 58l-122.002 -80.999c-16.667 2.66699 -33 10.5 -49 23.5s-25.667 25.833 -29 38.5c-27.333 -36 -74 -54 -140 -54c-42 0 -76.333 11 -103 33s-40 51.333 -40 88c0 39.333 23.5 74.666 70.5 105.999s111.833 55.666 194.5 72.999v38c0 57.333 -22 86 -66 86
c-23.333 0 -41.166 -4.83301 -53.499 -14.5s-18.5 -21.167 -18.5 -34.5c0 -16.667 6.66699 -28 20 -34l-126 -48c-7.33301 18 -11 36.667 -11 56c0 44.667 21 81.334 63 110.001c38.667 27.333 84.667 41 138 41c120 0 180 -50.333 180 -151v-185c0 -62 27 -93 81 -93
c0.666992 0 4.33398 0.666992 11.001 2zM306.998 142.001v73c-96 -19.333 -144 -51 -144 -95c0 -16 5.83301 -29.167 17.5 -39.5s26.834 -15.5 45.501 -15.5c21.333 0 40.166 7 56.499 21s24.5 32.667 24.5 56z" />
    <glyph glyph-name="b" unicode="b" horiz-adv-x="543" 
d="M508 256c0 -73.333 -21.668 -136.001 -65.001 -188.001c-45.333 -54 -102.333 -81 -171 -81c-37.333 0 -69.166 4.5 -95.499 13.5s-42.833 13.5 -49.5 13.5c-22.667 0 -42 -9.66699 -58 -29v539c0 73.333 -20.333 110 -61 110h-11l200 67v-276
c33.333 40 76.333 60 129 60c50.667 0 92.667 -18 126 -54c37.333 -41.333 56 -99.666 56 -174.999zM372.999 229.999c0 42 -7.66797 78 -23.001 108c-17.333 33.333 -40 50 -68 50c-25.333 0 -46.166 -10 -62.499 -30s-24.5 -45.333 -24.5 -76v-136
c0 -47.333 24.667 -71 74 -71c33.333 0 59.333 15.667 78 47c17.333 28 26 64 26 108z" />
    <glyph glyph-name="c" unicode="c" horiz-adv-x="461" 
d="M440 155c-9.33301 -52 -33.333 -94.001 -72 -126.001c-35.333 -29.333 -75.666 -44 -120.999 -44c-67.333 0 -120 21.667 -158 65c-36 41.333 -54 96.333 -54 165c0 80.667 23.333 146.334 70 197.001c44 48.667 98.667 73 164 73c46.667 0 84.667 -14.333 114 -43
s45 -66 47 -112l-122 -49c4.66699 10.667 7 23 7 37c0 22.667 -5.83301 41 -17.5 55s-27.834 21 -48.501 21c-28 0 -50.5 -13 -67.5 -39s-25.5 -58.667 -25.5 -98c0 -48.667 11.667 -89.667 35 -123c26 -36.667 60.667 -55 104 -55c54 0 102.333 25.333 145 76z" />
    <glyph glyph-name="d" unicode="d" horiz-adv-x="545" 
d="M547 45l-186 -66.999l-1 65c-32 -38.667 -77 -58 -135 -58c-54.667 0 -99 18.667 -133 56c-38 41.333 -57 99.666 -57 174.999c0 83.333 23.667 150 71 200c42.667 45.333 93.667 68 153 68c41.333 0 72.333 -9.33301 93 -28v70c0 69.333 -20.333 104 -61 104h-11l199 71
v-557c0 -66 18.333 -99 55 -99h13zM353 173.001v132c0 59.333 -26.667 89 -80 89c-32.667 0 -58.167 -14.333 -76.5 -43s-27.5 -63.667 -27.5 -105c0 -49.333 8.33301 -89 25 -119s40 -45 70 -45c24 0 44.833 8.33301 62.5 25s26.5 38.667 26.5 66z" />
    <glyph glyph-name="e" unicode="e" horiz-adv-x="492" 
d="M461 150c-20.667 -110 -88.668 -164.998 -204.001 -164.998c-67.333 0 -121.166 22.667 -161.499 68s-60.5 102.666 -60.5 171.999c0 72 20.333 132.667 61 182c42 52 96.667 78 164 78c61.333 0 108.833 -23.333 142.5 -70s50.834 -112.334 51.501 -197.001h-294
c0.666992 -5.33301 1.33398 -9 2.00098 -11c7.33301 -38 24.666 -68.5 51.999 -91.5s59.333 -34.5 96 -34.5c61.333 0 111.666 23 150.999 69zM332.999 290.002c0 33.333 -7.00098 60.833 -21.001 82.5s-33 32.5 -57 32.5c-25.333 0 -47.166 -11.167 -65.499 -33.5
s-28.5 -49.5 -30.5 -81.5h174z" />
    <glyph glyph-name="f" unicode="f" horiz-adv-x="347" 
d="M331 384h-112.999v-266c0 -70.667 17 -110 51 -118h-231c34.667 6 52 45.333 52 118v266h-78v82h78v30c0 66.667 17.333 117.667 52 153c31.333 32 72.666 48 123.999 48c6 0 27.667 -2.33301 65 -7v-119c-14.667 26 -36 39 -64 39c-32.667 0 -49 -27.667 -49 -83v-61
h113v-82z" />
    <glyph glyph-name="g" unicode="g" horiz-adv-x="517" 
d="M497 -28c0 -44 -21.6689 -81.666 -65.002 -112.999c-51.333 -36 -123.666 -54 -216.999 -54c-62.667 0 -111 8.33301 -145 25c-31.333 16 -47 37 -47 63c0 21.333 9.66699 42.333 29 63c16.667 18 36.667 32 60 42c-42.667 12 -64 32.667 -64 62
c0 16.667 10 35.334 30 56.001c16.667 17.333 36.667 32.666 60 45.999c-29.333 12 -53.166 31 -71.499 57s-27.5 54.667 -27.5 86c0 50.667 18 92.667 54 126c39.333 36 92 54 158 54c21.333 0 48 -3.66699 80 -11s61 -11 87 -11c32.667 0 59 5.66699 79 17v-92
c-4.66699 -1.33301 -29.334 -2 -74.001 -2c16 -22 24 -49 24 -81c0 -45.333 -16.667 -83 -50 -113c-37.333 -33.333 -88.333 -50 -153 -50c-5.33301 0 -14.666 1 -27.999 3c-27.333 -14 -41 -27.333 -41 -40c0 -14 22 -21.667 66 -23l115 -3
c49.333 -1.33301 86.333 -13.333 111 -36c20 -18.667 30 -42.334 30 -71.001zM317.998 305.001c0 27.333 -7.00098 51.5 -21.001 72.5s-33.667 31.5 -59 31.5c-22 0 -39 -8.33301 -51 -25s-18 -36.667 -18 -60c0 -28 7.33301 -52.667 22 -74s34.334 -32 59.001 -32
c21.333 0 38.333 9 51 27c11.333 16 17 36 17 60zM382.997 -60.999c0 24.667 -27.667 38 -83 40l-115 4c-31.333 -17.333 -47 -35.333 -47 -54c0 -30 35 -45 105 -45c44 0 78.333 5 103 15s37 23.333 37 40z" />
    <glyph glyph-name="h" unicode="h" horiz-adv-x="553" 
d="M536 0l-217.998 0.000976562c26.667 6 40 40 40 102v189c0 64.667 -23 97 -69 97c-24.667 0 -46 -9 -64 -27c-18.667 -20 -28 -45 -28 -75v-184c0 -62 16.333 -96 49 -102h-229c35.333 6.66699 53 42 53 106v408c0 72.667 -20.667 109 -62 109h-10l199 78v-279
c15.333 18 36.666 33 63.999 45s53.666 18 78.999 18c44.667 0 80 -13.833 106 -41.5s39 -67.834 39 -120.501v-218c0 -64 17 -99 51 -105z" />
    <glyph glyph-name="i" unicode="i" horiz-adv-x="266" 
d="M203 613c0 -22 -7.16699 -40 -21.5 -54s-33.166 -21 -56.499 -21s-42.166 7 -56.499 21s-21.5 32 -21.5 54c0 21.333 7.16699 39.166 21.5 53.499s33.166 21.5 56.499 21.5s42.166 -7.16699 56.499 -21.5s21.5 -32.166 21.5 -53.499zM250 0h-232
c34.667 6 52 41.333 52 106v218c0 60 -19.333 90 -58 90h-13l199 75v-383c0 -64 17.333 -99.333 52 -106z" />
    <glyph glyph-name="j" unicode="j" horiz-adv-x="266" 
d="M198 613c0 -22 -7.33301 -40 -22 -54s-33.667 -21 -57 -21s-42.166 7 -56.499 21s-21.5 32 -21.5 54c0 21.333 7.16699 39.166 21.5 53.499s33.166 21.5 56.499 21.5s42.333 -7.16699 57 -21.5s22 -32.166 22 -53.499zM198 -15
c0 -117.333 -53.001 -175.999 -159.001 -175.999c-26 0 -50.333 6.66699 -73 20c-17.333 9.33301 -29.666 19.666 -36.999 30.999c14 -4.66699 29 -7 45 -7c64 0 96 43.667 96 131v344c0 57.333 -19 86 -57 86h-14l199 75v-504z" />
    <glyph glyph-name="k" unicode="k" horiz-adv-x="575" 
d="M583 16c-25.333 -18.667 -67 -28 -125 -28c-54 0 -102.333 28.333 -145 85l-115 153v-120c0 -64 17 -99.333 51 -106h-230c34 6 51 41.333 51 106v411c0 72 -20.667 108 -62 108h-10l200 73v-432l109 114c22 23.333 33 43 33 59c0 15.333 -9.66699 24.333 -29 27h244
c-38.667 -14 -82 -45.667 -130 -95l-100 -102l135 -167c47.333 -58.667 84.333 -88 111 -88c2 0 6 0.666992 12 2z" />
    <glyph glyph-name="l" unicode="l" horiz-adv-x="266" 
d="M248 0h-230c34 6.66699 51 42 51 106v411c0 72 -20.667 108 -62 108h-9l199 73v-592c0 -64.667 17 -100 51 -106z" />
    <glyph glyph-name="m" unicode="m" horiz-adv-x="829" 
d="M811 0h-225.002c31.333 5.33301 47 40.666 47 105.999v182c0 66.667 -21.667 100 -65 100c-27.333 0 -49 -9.33301 -65 -28s-24 -42.667 -24 -72v-182c0 -65.333 15.667 -100.666 47 -105.999h-221c30 6 45 41.333 45 106v182c0 66.667 -20.667 100 -62 100
c-26 0 -47.833 -9.5 -65.5 -28.5s-26.5 -42.833 -26.5 -71.5v-182c0 -64 16 -99.333 48 -106h-227c34.667 6 52 40.667 52 104v218c0 61.333 -18.333 92 -55 92h-14l192 75l1 -71c17.333 20 40.333 36.167 69 48.5s56.334 18.5 83.001 18.5
c54.667 0 90.334 -22.667 107.001 -68c16 19.333 38.333 35.333 67 48c31.333 13.333 63.333 20 96 20c96.667 0 145 -55.333 145 -166v-213c0 -64.667 17 -100 51 -106z" />
    <glyph glyph-name="n" unicode="n" horiz-adv-x="552" 
d="M536 0l-225.001 -0.000976562c30.667 6 46 40 46 102v189c0 64.667 -22.667 97 -68 97c-25.333 0 -47.166 -9.66699 -65.499 -29s-27.5 -43.666 -27.5 -72.999v-184c0 -62 16.333 -96 49 -102h-229c35.333 6 53 40.667 53 104v218c0 61.333 -18.333 92 -55 92h-14l192 75
l1 -72c16.667 19.333 39 35.5 67 48.5s54.667 19.5 80 19.5c96.667 0 145 -54.333 145 -163v-216c0 -64.667 17 -100 51 -106z" />
    <glyph glyph-name="o" unicode="o" horiz-adv-x="562" 
d="M526 246c0 -74.667 -22.667 -136.333 -68 -185c-47.333 -50.667 -108.333 -76 -183 -76c-72.667 0 -130.667 22.333 -174 67s-65 102.667 -65 174c0 74.667 23.333 136.5 70 185.5s106 73.5 178 73.5c73.333 0 132 -22.167 176 -66.5s66 -101.833 66 -172.5zM394 225.001
c0 46 -11.332 85.833 -33.999 119.5s-52.334 50.5 -89.001 50.5c-32 0 -57.5 -13.833 -76.5 -41.5s-28.5 -62.5 -28.5 -104.5c0 -46.667 11.5 -87.334 34.5 -122.001s52.5 -52 88.5 -52c32 0 57.5 14.333 76.5 43s28.5 64.334 28.5 107.001z" />
    <glyph glyph-name="p" unicode="p" horiz-adv-x="543" 
d="M508 252c0 -78 -21.168 -141.5 -63.501 -190.5s-97.833 -73.5 -166.5 -73.5c-39.333 0 -67.666 9 -84.999 27v-91c0 -64 17 -99 51 -105h-222c29.333 6 44 41 44 105v392c0 65.333 -18.333 98 -55 98h-12l186 75l2 -72c33.333 45.333 79 68 137 68
c50 0 91.667 -18.333 125 -55c39.333 -42.667 59 -102 59 -178zM371.999 224c0 49.333 -8.16699 89 -24.5 119s-39.833 45 -70.5 45c-24 0 -44.333 -10.167 -61 -30.5s-25 -46.833 -25 -79.5v-131c0 -48 25.667 -72 77 -72c32.667 0 58.667 14.667 78 44
c17.333 27.333 26 62.333 26 105z" />
    <glyph glyph-name="q" unicode="q" horiz-adv-x="540" 
d="M525 -181h-220.999c28.667 6 43 41 43 105v122c-31.333 -39.333 -74.333 -59 -129 -59c-50.667 0 -92.667 18 -126 54c-38 40.667 -57 98.667 -57 174c0 73.333 21.667 136 65 188c45.333 54.667 102.666 82 171.999 82c34.667 0 65.167 -4.66699 91.5 -14
s43.5 -14 51.5 -14c24 0 43.667 9.66699 59 29v-562c0 -64 17 -99 51 -105zM348.001 190l-0.000976562 135c0 47.333 -24.667 71 -74 71c-33.333 0 -59.333 -15.333 -78 -46c-17.333 -28 -26 -64 -26 -108c0 -43.333 8 -80 24 -110c16.667 -32 39 -48 67 -48
c24.667 0 45.334 10 62.001 30s25 45.333 25 76z" />
    <glyph glyph-name="r" unicode="r" horiz-adv-x="390" 
d="M370 310c-6.66699 15.333 -17.833 28.167 -33.5 38.5s-32.167 15.5 -49.5 15.5c-26 0 -47.333 -12.667 -64 -38c-19.333 -28 -29 -67.667 -29 -119v-101c0 -64 17.333 -99.333 52 -106h-229c34 6.66699 51 42 51 106v225c0 58 -18 87 -54 87h-12l185 71l2 -104
c11.333 27.333 28.333 50.333 51 69c25.333 20.667 51.333 31 78 31c18 0 35.333 -4.66699 52 -14v-161z" />
    <glyph glyph-name="s" unicode="s" horiz-adv-x="397" 
d="M372 133c0 -46 -17 -82.167 -51 -108.5s-79.333 -39.5 -136 -39.5c-66 0 -115.333 13.333 -148 40v165c24 -79.333 73.333 -119 148 -119c45.333 0 68 14.667 68 44c0 18 -11.333 34 -34 48l-85 43c-61.333 33.333 -92 77 -92 131c0 44.667 15.667 80.667 47 108
s75.333 41 132 41c44.667 0 84.334 -9.66699 119.001 -29v-145c-8.66699 26 -24 46.833 -46 62.5s-47.333 23.5 -76 23.5c-39.333 0 -59 -14 -59 -42c0 -16 8.66699 -30 26 -42c9.33301 -6.66699 32.333 -18.667 69 -36c39.333 -18.667 67.666 -37.667 84.999 -57
c22 -24 33 -53.333 33 -88z" />
    <glyph glyph-name="t" unicode="t" horiz-adv-x="355" 
d="M341 130c-12.667 -97.333 -61.667 -146 -147 -146c-38.667 0 -69 11.5 -91 34.5s-33 52.833 -33 89.5v276h-76l203 220v-138h129v-82h-129v-235c0 -45.333 18.333 -68 55 -68c16.667 0 33.5 4.66699 50.5 14s29.833 21 38.5 35z" />
    <glyph glyph-name="u" unicode="u" horiz-adv-x="549" 
d="M550 56l-192 -75l-1 73c-38 -46 -87 -69 -147 -69c-96.667 0 -145 55.333 -145 166v209c0 62 -22.333 97.333 -67 106h195v-287c0 -64.667 22.333 -97 67 -97c26 0 48.167 10.167 66.5 30.5s27.5 44.833 27.5 73.5v180c0 58.667 -17 92 -51 100h178v-320
c0 -60 18.333 -90 55 -90h14z" />
    <glyph glyph-name="v" unicode="v" horiz-adv-x="554" 
d="M551 466c-8 -2 -16 -6.33301 -24 -13c-18.667 -15.333 -35.334 -41 -50.001 -77l-154 -376h-89l-161 383c-21.333 50 -46.666 77.667 -75.999 83h246c-25.333 -2.66699 -38 -16.667 -38 -42c0 -12 3.66699 -27 11 -45l82 -202l71 191c8 21.333 12 37.333 12 48
c0 29.333 -14.667 46 -44 50h214z" />
    <glyph glyph-name="w" unicode="w" horiz-adv-x="803" 
d="M806 466c-8.66699 -1.33301 -17.001 -5.33398 -25.001 -12.001c-19.333 -15.333 -36 -41.333 -50 -78l-141 -376h-89l-96 256l-96 -256h-88l-148 383c-19.333 50.667 -44.666 78.334 -75.999 83.001h239c-21.333 -0.666992 -32 -14 -32 -40c0 -12 3.66699 -27.667 11 -47
l75 -201l73 191c-1.33301 5.33301 -3.33301 11.333 -6 18c-16 48.667 -36.667 75 -62 79h218c-24.667 -0.666992 -37 -15.667 -37 -45c0 -9.33301 3.33301 -23.333 10 -42l73 -201l67 189c6.66699 18.667 10 35 10 49c0 29.333 -12.667 46 -38 50h208z" />
    <glyph glyph-name="x" unicode="x" horiz-adv-x="528" 
d="M527 0h-234.001c12.667 2.66699 19 11 19 25s-8.33301 33.667 -25 59l-36 55l-35 -52c-19.333 -28.667 -29 -49.667 -29 -63c0 -14 7 -22 21 -24h-206c8.66699 1.33301 18.334 5.33301 29.001 12c24 15.333 49 42 75 80l89 129l-111 164c-30.667 46 -58 73 -82 81h233
c-14.667 -2.66699 -22 -11.334 -22 -26.001c0 -13.333 7.66699 -31.333 23 -54l40 -59l39 58c16.667 24.667 25 43.667 25 57s-6.33301 21.333 -19 24h205c-9.33301 -1.33301 -19.333 -5 -30 -11c-24.667 -15.333 -49 -40.666 -73 -75.999l-91 -134l119 -173
c28 -40.667 53.333 -64.667 76 -72z" />
    <glyph glyph-name="y" unicode="y" horiz-adv-x="548" 
d="M550 466c-11.333 -5.33301 -19 -9.99902 -23 -13.999c-17.333 -16 -33.333 -41.333 -48 -76l-139 -334c-25.333 -60.667 -54.166 -112 -86.499 -154s-63.166 -68.667 -92.499 -80l-140 95c19.333 -8 31.666 -10 36.999 -6c5.33301 -0.666992 10.333 -1 15 -1
c54 0 103.333 40.667 148 122l-146 363c-13.333 33.333 -30 57.333 -50 72l-27 13h243l-18 -8c-10.667 -7.33301 -16 -19.333 -16 -36c0 -10.667 4 -26.334 12 -47.001l77 -201l73 191c9.33301 24.667 14 43 14 55c-0.666992 28 -14.334 43.333 -41.001 46h208z" />
    <glyph glyph-name="z" unicode="z" horiz-adv-x="474" 
d="M446 0h-421.999l227 391h-109c-60 0 -95 -29.667 -105 -89v164h400l-225 -386h137c55.333 0 87.666 27 96.999 81v-161z" />
    <glyph glyph-name="braceleft" unicode="{" horiz-adv-x="384" 
d="M392 -190c-90.667 0.666992 -153.001 8.00293 -187.001 22.0029c-46 19.333 -69 57 -69 113v142c0 66 -10.333 110.667 -31 134c-17.333 19.333 -49 30.666 -95 33.999c46.667 3.33301 78.334 14.666 95.001 33.999c20.667 23.333 31 67.666 31 132.999v142
c0 56 23 93.667 69 113c34.667 14.667 97 22.334 187 23.001c-48 -2.66699 -82.333 -14.834 -103 -36.501s-31 -54.167 -31 -97.5v-131c0 -115.333 -48 -175.333 -144 -180c96 -6 144 -66.333 144 -181v-131c0 -44 10.333 -76.5 31 -97.5s55 -32.833 103 -35.5z" />
    <glyph glyph-name="bar" unicode="|" horiz-adv-x="238" 
d="M171 -220h-104v1000h104v-1000z" />
    <glyph glyph-name="braceright" unicode="}" horiz-adv-x="384" 
d="M367 255c-46 -3.33301 -77.668 -14.6689 -95.001 -34.002c-20.667 -23.333 -31 -68 -31 -134v-142c0 -56 -23 -93.667 -69 -113c-34 -14 -96.333 -21.333 -187 -22c48 2.66699 82.333 14.5 103 35.5s31 53.5 31 97.5v131c0 114.667 48 175 144 181
c-96 4.66699 -144 64.667 -144 180v131c0 43.333 -10.333 75.833 -31 97.5s-55 33.834 -103 36.501c90 -0.666992 152.333 -8.33398 187 -23.001c46 -19.333 69 -57 69 -113v-142c0 -65.333 10.333 -109.666 31 -132.999c16.667 -19.333 48.334 -30.666 95.001 -33.999z" />
    <glyph glyph-name="asciitilde" unicode="~" horiz-adv-x="689" 
d="M628 395c2 -64.667 -9.50098 -114 -34.501 -148s-60.833 -51 -107.5 -51c-43.333 0 -94.666 18.167 -153.999 54.5s-98.666 54.5 -117.999 54.5c-35.333 0 -54 -32 -56 -96h-96c1.33301 68 18.666 119 51.999 153c28 28 63.333 42 106 42c40 0 89 -17.667 147 -53
s95.667 -53 113 -53c34 0 51.667 32.333 53 97h95z" />
    <glyph glyph-name="nonbreakingspace" unicode="&#xa0;" horiz-adv-x="232" 
 />
    <glyph glyph-name="exclamdown" unicode="&#xa1;" horiz-adv-x="300" 
d="M227 433c0 -20.667 -7 -38 -21 -52s-32.333 -21 -55 -21s-41.334 7 -56.001 21s-22 31.333 -22 52s7.33301 37.834 22 51.501s33.334 20.5 56.001 20.5s41 -6.83301 55 -20.5s21 -30.834 21 -51.501zM263 -175l-225 -0.000976562c7.33301 2 14 7.66699 20 17
c13.333 22 21.666 59.333 24.999 112l12 203c2.66699 41.333 12.334 79.333 29.001 114l26 43l26 -42c17.333 -35.333 27.333 -73.666 30 -114.999l12 -203c4.66699 -78 19.667 -121 45 -129z" />
    <glyph glyph-name="cent" unicode="&#xa2;" 
d="M484 264c-8 -47.333 -24.998 -86.1699 -50.998 -116.503s-56.667 -50.5 -92 -60.5v-99h-89v95c-55.333 8.66699 -98.333 34.334 -129 77.001c-29.333 40 -44 90.333 -44 151c0 68.667 16 126.334 48 173.001s73.667 76.334 125 89.001v99h89v-96
c38 -6.66699 69.167 -23.834 93.5 -51.501s37.166 -60.834 38.499 -99.501l-121 -49c4 9.33301 6 22 6 38c0 22.667 -5.83301 40.834 -17.5 54.501s-27.834 20.5 -48.501 20.5c-28 0 -50.333 -13 -67 -39s-25 -58.667 -25 -98c0 -51.333 12.5 -93.666 37.5 -126.999
s57.5 -50 97.5 -50c56 0 105.667 29.667 149 89z" />
    <glyph glyph-name="sterling" unicode="&#xa3;" 
d="M518 31c-22.667 -30.667 -62.999 -46.002 -120.999 -46.002c-27.333 0 -65.333 5.16699 -114 15.5s-85 15.5 -109 15.5c-50.667 0 -91.667 -10.667 -123 -32l-37 103c39.333 1.33301 66.833 17 82.5 47s24.5 84.333 26.5 163h-64v86h66
c2 98.667 16.667 170.334 44 215.001c33.333 56 90.666 84 171.999 84c62.667 0 111 -12 145 -36l-40 -114c-5.33301 20 -17.333 35.333 -36 46s-39 16 -61 16c-36 0 -60 -19.667 -72 -59c-8.66699 -28 -13 -78.667 -13 -152h120v-86h-120
c-2 -101.333 -17.333 -164.666 -46 -189.999c11.333 0.666992 25 0.666992 41 0c9.33301 -0.666992 25 -2.66699 47 -6c18.667 -2.66699 34.667 -4 48 -4c55.333 0 99 17.333 131 52z" />
    <glyph glyph-name="currency" unicode="&#xa4;" horiz-adv-x="570" 
d="M493 184l-60 -59l-85 86c-18 -9.33301 -39 -14 -63 -14c-22.667 0 -43 4.66699 -61 14l-87 -87l-59 59l90 90c-8.66699 20 -13 39.667 -13 59s4.33301 39 13 59l-90 91l60 59l87 -88c17.333 8.66699 37.333 13 60 13c24 0 44.667 -4.33301 62 -13l86 84l60 -59l-89 -87
c7.33301 -17.333 11 -37 11 -59s-3.66699 -41.667 -11 -59zM353 332c0 20.667 -5.83301 38.167 -17.5 52.5s-28.5 21.5 -50.5 21.5c-21.333 0 -38 -7.33301 -50 -22s-18 -32 -18 -52c0 -20.667 5.66699 -38 17 -52c12.667 -16 29.667 -24 51 -24s38.333 8 51 24
c11.333 14 17 31.333 17 52z" />
    <glyph glyph-name="yen" unicode="&#xa5;" horiz-adv-x="562" 
d="M552 666c-8.66699 -2.66699 -17.667 -8.33203 -27 -16.999c-21.333 -20.667 -42 -54 -62 -100l-46 -107h103v-71h-133l-34 -78h167v-71h-175v-107c0 -69.333 17.667 -107.666 53 -114.999h-247c36 7.33301 54 45.666 54 114.999v107h-177v71h168l-33 78h-135v71h107
l-46 109c-29.333 68.667 -60 107 -92 115h244c-16.667 -3.33301 -25 -17.333 -25 -42c0 -18.667 5.33301 -41.334 16 -68.001l65 -164l58 147c16 40.667 24 70 24 88c0 23.333 -7 36.333 -21 39h194z" />
    <glyph glyph-name="brokenbar" unicode="&#xa6;" horiz-adv-x="238" 
d="M171 325h-104v350h104v-350zM171 -175h-104v350h104v-350z" />
    <glyph glyph-name="section" unicode="&#xa7;" horiz-adv-x="605" 
d="M543 263c0 -54.667 -28.668 -98.3291 -86.001 -130.996c46 -30.667 69 -70.334 69 -119.001c0 -57.333 -24 -102 -72 -134c-43.333 -29.333 -97.666 -44 -162.999 -44c-93.333 0 -169.666 30.333 -228.999 91l81 91c40 -58 93.333 -87 160 -87c23.333 0 43 5.66699 59 17
s24 26.666 24 45.999c0 32 -27.333 59.667 -82 83l-151 61c-54.667 29.333 -82 67.666 -82 114.999c0 57.333 32.667 102 98 134c-54.667 30 -82 69 -82 117c0 58 24.333 103 73 135c42.667 28.667 96.334 43 161.001 43c40 0 77.167 -5.83301 111.5 -17.5
s59.5 -27.834 75.5 -48.501l-77 -91c-30.667 43.333 -72.334 65 -125.001 65c-23.333 0 -43 -5.5 -59 -16.5s-24 -25.5 -24 -43.5c0 -29.333 27.667 -55 83 -77c99.333 -40 150.666 -61 153.999 -63c55.333 -31.333 83 -73.333 83 -126zM415.999 242.005
c0 23.333 -16.668 44.333 -50.001 63c-15.333 8.66699 -49.333 23 -102 43c-42 -14 -63 -36.667 -63 -68c0 -22.667 17.667 -43 53 -61c4.66699 -2.66699 40.334 -17 107.001 -43c36.667 12 55 34 55 66z" />
    <glyph glyph-name="dieresis" unicode="&#xa8;" horiz-adv-x="477" 
d="M402 615c0 -18.667 -6.16797 -34 -18.501 -46s-28.5 -18 -48.5 -18c-19.333 0 -35.166 6 -47.499 18s-18.5 27.333 -18.5 46c0 18 6 33 18 45s28 18 48 18s36.167 -6 48.5 -18s18.5 -27 18.5 -45zM211.999 615c0 -18.667 -6.16797 -34 -18.501 -46
s-28.166 -18 -47.499 -18c-20 0 -36.333 6 -49 18s-19 27.333 -19 46c0 18 6.33301 33 19 45s29 18 49 18s36 -6 48 -18s18 -27 18 -45z" />
    <glyph glyph-name="copyright" unicode="&#xa9;" horiz-adv-x="742" 
d="M708 333c0 -108.667 -35 -194.667 -105 -258c-63.333 -57.333 -141 -86 -233 -86s-170 28.667 -234 86c-70.667 64 -106 150 -106 258s35.333 194 106 258c64 57.333 142 86 234 86s169.333 -28.667 232 -86c70.667 -63.333 106 -149.333 106 -258zM657 333
c0 94.667 -30 169.332 -90 223.999c-53.333 50 -119 75 -197 75s-144.333 -25 -199 -75c-60 -55.333 -90 -129.666 -90 -222.999c0 -94 30 -169 90 -225c54.667 -50 121 -75 199 -75s143.667 25 197 75c60 55.333 90 130 90 224zM503 162.998
c-12 -16 -29.998 -29.667 -53.998 -41s-48 -17 -72 -17c-64.667 0 -115.334 22.667 -152.001 68c-32.667 40 -49 90.333 -49 151c0 65.333 18.667 120.333 56 165c39.333 47.333 90.333 71 153 71c38.667 0 75.667 -11.333 111 -34v-146c-22 72.667 -58 109 -108 109
c-36.667 0 -65.667 -14.333 -87 -43s-32 -64 -32 -106c0 -43.333 11.167 -80.333 33.5 -111s52.166 -46 89.499 -46c44 0 81 21.667 111 65v-85z" />
    <glyph glyph-name="ordfeminine" unicode="&#xaa;" horiz-adv-x="377" 
d="M374 373l-93 -57.001c-12 2 -23.667 7.33301 -35 16s-18.333 17.667 -21 27c-20 -24.667 -53.667 -37 -101 -37c-30 0 -54.667 8 -74 24s-29 37.333 -29 64c0 59.333 63.333 102.333 190 129v26c0 40.667 -15.667 61 -47 61c-34 0 -51 -11.333 -51 -34
c0 -12 5.33301 -20.333 16 -25l-93 -35c-5.33301 12.667 -8 26.334 -8 41.001c0 32 15 58.667 45 80c28.667 19.333 62 29 100 29c86.667 0 130 -36 130 -108v-133c0 -46.667 20.333 -70 61 -70c0.666992 0 4 0.666992 10 2zM211 434.999l0.000976562 52.999
c-68.667 -14 -103 -37 -103 -69c0 -25.333 15.333 -38 46 -38c15.333 0 28.666 4.83301 39.999 14.5s17 22.834 17 39.501z" />
    <glyph glyph-name="guillemotleft" unicode="&#xab;" horiz-adv-x="435" 
d="M415 64h-96l-114 188l114 188h96l-114 -188zM229 64h-96l-114 188l114 188h96l-114 -188z" />
    <glyph glyph-name="logicalnot" unicode="&#xac;" horiz-adv-x="690" 
d="M620 140h-90v183h-460v88h550v-271z" />
    <glyph glyph-name="minus" unicode="&#xad;" horiz-adv-x="689" 
d="M620 242h-550v89h550v-89z" />
    <glyph glyph-name="minus" unicode="&#x2212;" horiz-adv-x="689" 
d="M620 242h-550v89h550v-89z" />
    <glyph glyph-name="registered" unicode="&#xae;" horiz-adv-x="738" 
d="M708 333c0 -108.667 -35 -194.667 -105 -258c-63.333 -57.333 -140.666 -86 -231.999 -86c-92 0 -170 28.667 -234 86c-71.333 64 -107 150 -107 258s35.667 194 107 258c64 57.333 142 86 234 86c91.333 0 168.666 -28.667 231.999 -86
c70 -63.333 105 -149.333 105 -258zM657 333c0 94.667 -30 169.332 -90 223.999c-53.333 50 -119 75 -197 75s-144.333 -25 -199 -75c-60 -55.333 -90 -129.666 -90 -222.999c0 -94 30 -169 90 -225c54.667 -50 121 -75 199 -75s143.667 25 197 75c60 55.333 90 130 90 224z
M543 118.998l-110.001 -0.000976562l-50 125c-12 29.333 -26 44 -42 44h-11v-93c0 -28.667 4.33301 -49.667 13 -63c4.66699 -4 9.33398 -8.33301 14.001 -13h-132c4.66699 4.66699 9.33398 9 14.001 13c8.66699 13.333 13 34.333 13 63v284c0 28.667 -5 50 -15 64l-16 14
h162c42 0 75.333 -13.333 100 -40c22 -24 33 -53.333 33 -88c0 -30 -7.66699 -56.333 -23 -79c-16.667 -25.333 -38.667 -39.666 -66 -42.999c13.333 -7.33301 25.666 -24.333 36.999 -51l35 -84c9.33301 -22 24 -39.667 44 -53zM437.999 422.997
c0 20 -5.99902 37.167 -17.999 51.5s-28 21.5 -48 21.5h-42v-148h42c19.333 0 35.166 7 47.499 21s18.5 32 18.5 54z" />
    <glyph glyph-name="macron" unicode="&#xaf;" horiz-adv-x="477" 
d="M400 573h-323v61h323v-61z" />
    <glyph glyph-name="macron" unicode="&#x2c9;" horiz-adv-x="477" 
d="M400 573h-323v61h323v-61z" />
    <glyph glyph-name="degree" unicode="&#xb0;" horiz-adv-x="375" 
d="M337 543c0 -38 -12 -70 -36 -96c-26.667 -28.667 -62.334 -43 -107.001 -43s-80.334 14.333 -107.001 43c-24.667 26 -37 58 -37 96s12.833 70.5 38.5 97.5s60.834 40.5 105.501 40.5s80.334 -14 107.001 -42c24 -26 36 -58 36 -96zM268 543
c0 21.333 -6.5 39.333 -19.5 54s-31.167 22 -54.5 22c-22.667 0 -40.667 -7.33301 -54 -22s-20 -32.667 -20 -54s6.66699 -39.666 20 -54.999s31.333 -23 54 -23s40.667 7.66699 54 23s20 33.666 20 54.999z" />
    <glyph glyph-name="plusminus" unicode="&#xb1;" horiz-adv-x="689" 
d="M610 342h-219v-186h-91v186h-221v87h221v184h91v-184h219v-87zM610 0h-531v88h531v-88z" />
    <glyph glyph-name="twosuperior" unicode="&#xb2;" horiz-adv-x="392" 
d="M363 334l-15 -101.999h-324l109 120c42.667 46.667 72 82.667 88 108c19.333 30 29 57.667 29 83c0 24 -7.33301 43 -22 57c-12.667 12 -29 18 -49 18c-19.333 0 -34.5 -4.83301 -45.5 -14.5s-16.5 -21.167 -16.5 -34.5c0 -23.333 12.667 -37.333 38 -42l-58 -64
c-17.333 4.66699 -32 15 -44 31s-18 34.667 -18 56c0 35.333 13.333 65 40 89c30 28 71.333 42 124 42c40 0 73.333 -10.333 100 -31c29.333 -24 44 -56.333 44 -97c0 -30 -13.333 -64.333 -40 -103c-16.667 -24.667 -50.334 -65.334 -101.001 -122.001l-25 -28h109
c36.667 0 62.334 11.333 77.001 34z" />
    <glyph glyph-name="threesuperior" unicode="&#xb3;" horiz-adv-x="395" 
d="M358 345c0 -38.667 -17.6689 -69.6689 -53.002 -93.002c-31.333 -20 -69 -30 -113 -30c-84 0 -135.333 29 -154 87l82 55c2.66699 -23.333 11.834 -42.333 27.501 -57s34.167 -22 55.5 -22c18 0 33.333 5 46 15s19 23 19 39c0 25.333 -14 45.666 -42 60.999
s-63.667 23.333 -107 24l16 56c10 -1.33301 22.333 -2 37 -2c26 0 47.5 6.83301 64.5 20.5s25.5 31.834 25.5 54.501c0 19.333 -7.16699 35.333 -21.5 48s-32.166 19 -53.499 19c-18 0 -32.667 -3.83301 -44 -11.5s-17 -17.5 -17 -29.5
c0 -11.333 4.33301 -19.666 13 -24.999l-80 -35c-10.667 12.667 -16 27.667 -16 45c0 38 18 68 54 90c30.667 18.667 67 28 109 28c38 0 70.333 -9.33301 97 -28c30.667 -21.333 46 -50 46 -86c0 -27.333 -8.33301 -51.666 -25 -72.999s-39 -35 -67 -41
c67.333 -18.667 101 -55 101 -109z" />
    <glyph glyph-name="acute" unicode="&#xb4;" horiz-adv-x="477" 
d="M426 683l-226 -177l60 177h166z" />
    <glyph glyph-name="mu" unicode="&#xb5;" horiz-adv-x="544" 
d="M545 56l-192 -75l-1 72c-28.667 -44.667 -65.667 -67 -111 -67c-18.667 0 -35 5 -49 15v-182h-128v541c0 62 -22.333 97.333 -67 106h195v-287c0 -64 21.667 -96 65 -96c26 0 47.833 9.83301 65.5 29.5s26.5 44.167 26.5 73.5v180c0 58.667 -17 92 -51 100h178v-320
c0 -60 18.333 -90 55 -90h14z" />
    <glyph glyph-name="mu" unicode="&#x3bc;" horiz-adv-x="544" 
d="M545 56l-192 -75l-1 72c-28.667 -44.667 -65.667 -67 -111 -67c-18.667 0 -35 5 -49 15v-182h-128v541c0 62 -22.333 97.333 -67 106h195v-287c0 -64 21.667 -96 65 -96c26 0 47.833 9.83301 65.5 29.5s26.5 44.167 26.5 73.5v180c0 58.667 -17 92 -51 100h178v-320
c0 -60 18.333 -90 55 -90h14z" />
    <glyph glyph-name="paragraph" unicode="&#xb6;" horiz-adv-x="669" 
d="M580 669c-10.667 -44.667 -16.001 -97.668 -16.001 -159.001v-691h-80v780h-89v-779h-80v320c-81.333 2 -147.166 27.833 -197.499 77.5s-75.5 111.167 -75.5 184.5c0 74.667 25 136.334 75 185.001c56 54.667 134 82 234 82h229z" />
    <glyph glyph-name="periodcentered" unicode="&#xb7;" horiz-adv-x="254" 
d="M215 237c0 -24 -8.16699 -44 -24.5 -60s-37.5 -24 -63.5 -24s-47 8 -63 24s-24 36 -24 60s8 44 24 60s37 24 63 24s47.167 -8 63.5 -24s24.5 -36 24.5 -60z" />
    <glyph glyph-name="periodcentered" unicode="&#x2219;" horiz-adv-x="254" 
d="M215 237c0 -24 -8.16699 -44 -24.5 -60s-37.5 -24 -63.5 -24s-47 8 -63 24s-24 36 -24 60s8 44 24 60s37 24 63 24s47.167 -8 63.5 -24s24.5 -36 24.5 -60z" />
    <glyph glyph-name="cedilla" unicode="&#xb8;" horiz-adv-x="477" 
d="M338 -106c0 -20.667 -9.33301 -38.668 -28 -54.001s-44 -23 -76 -23c-33.333 0 -62.333 8 -87 24c10 -2 20.333 -3 31 -3c23.333 0 41.833 4.83301 55.5 14.5s20.5 20.834 20.5 33.501c0 12 -6.83301 22.5 -20.5 31.5s-33.167 13.833 -58.5 14.5l47 77h66l-30 -45
c53.333 -6.66699 80 -30 80 -70z" />
    <glyph glyph-name="onesuperior" unicode="&#xb9;" horiz-adv-x="342" 
d="M294 238h-163c24.667 14.667 37 45 37 91v261l-138 -69v71l173 90h53v-353c0 -46 12.667 -76.333 38 -91z" />
    <glyph glyph-name="ordmasculine" unicode="&#xba;" horiz-adv-x="394" 
d="M373 510c0 -54.667 -16.6689 -99.668 -50.002 -135.001s-76.666 -53 -129.999 -53c-51.333 0 -92.666 16 -123.999 48s-47 74 -47 126c0 54.667 16.833 99.334 50.5 134.001s75.834 52 126.501 52c51.333 0 93.166 -15.667 125.499 -47s48.5 -73 48.5 -125z
M276.998 494.999c0 32 -8.16699 60.167 -24.5 84.5s-37.166 36.5 -62.499 36.5c-22.667 0 -40.667 -10.167 -54 -30.5s-20 -44.833 -20 -73.5c0 -32.667 8.16699 -61.5 24.5 -86.5s37.166 -37.5 62.499 -37.5c22.667 0 40.667 11 54 33c13.333 20 20 44.667 20 74z" />
    <glyph glyph-name="guillemotright" unicode="&#xbb;" horiz-adv-x="435" 
d="M414 252l-114 -188h-95l113 188l-113 188h95zM230 252l-114 -188h-96l114 188l-114 188h95z" />
    <glyph glyph-name="onequarter" unicode="&#xbc;" horiz-adv-x="889" 
d="M804 95h-52v-26c0 -34.667 7.33301 -57.667 22 -69h-126c14 12 21 35.333 21 70v25h-202v37l171 311h114v-281h52v-67zM642 681l-383 -681h-63l386 681h60zM292 238h-162c24.667 14.667 37 45 37 91v261l-138 -69v71l172 90h54v-353c0 -46 12.333 -76.333 37 -91z
M669 162v206l-115 -206h115z" />
    <glyph glyph-name="onehalf" unicode="&#xbd;" horiz-adv-x="877" 
d="M838 102l-15.001 -102.001h-324l109 120c42 46.667 71.333 82.667 88 108c19.333 30.667 29 58.667 29 84c0 24 -7.33301 43 -22 57c-13.333 12 -30 18 -50 18c-19.333 0 -34.5 -4.83301 -45.5 -14.5s-16.5 -21.167 -16.5 -34.5c0 -23.333 13 -37.666 39 -42.999l-59 -64
c-17.333 4.66699 -32 15 -44 31s-18 34.667 -18 56c0 35.333 13.333 65 40 89c30.667 28 72.334 42 125.001 42c40 0 73.333 -10.333 100 -31c29.333 -23.333 44 -55.333 44 -96c0 -30 -13.667 -64.333 -41 -103c-12.667 -18 -46.334 -59 -101.001 -123l-24 -28h109
c36.667 0 62.334 11.333 77.001 34zM641.999 680.999l-383 -681h-63l386 681h60zM291.999 238.999h-162c24 14 36 44 36 90v261l-137 -69v71l172 90h54v-353c0 -45.333 12.333 -75.333 37 -90z" />
    <glyph glyph-name="threequarters" unicode="&#xbe;" horiz-adv-x="889" 
d="M844 95l-53 0.000976562v-26c0 -34.667 7.66699 -57.667 23 -69h-126c13.333 11.333 20 34.666 20 69.999v25h-202v37l171 311h114v-281h53v-67zM697 681.001l-382 -681h-63l385 681h60zM360 345.001c0 -38.667 -17.668 -69.6689 -53.001 -93.002
c-31.333 -20 -69 -30 -113 -30c-84.667 0 -136.334 29 -155.001 87l83 55c2.66699 -23.333 11.834 -42.333 27.501 -57s34.167 -22 55.5 -22c18 0 33.333 5 46 15s19 23 19 39c0 25.333 -14 45.666 -42 60.999s-63.667 23.333 -107 24l16 56c10 -1.33301 22 -2 36 -2
c26 0 47.667 6.83301 65 20.5s26 31.834 26 54.501c0 19.333 -7.16699 35.333 -21.5 48s-32.166 19 -53.499 19c-18 0 -32.833 -3.83301 -44.5 -11.5s-17.5 -17.5 -17.5 -29.5c0 -11.333 4.33301 -19.666 13 -24.999l-80 -35c-10 12 -15 27 -15 45c0 38 18 68 54 90
c30.667 18.667 67 28 109 28c38 0 70.333 -9.33301 97 -28c30 -21.333 45 -50 45 -86c0 -27.333 -8.33301 -51.666 -25 -72.999s-39 -35 -67 -41c68 -18.667 102 -55 102 -109zM707.999 161.999v206l-114 -206h114z" />
    <glyph glyph-name="questiondown" unicode="&#xbf;" horiz-adv-x="460" 
d="M321 436c0 -20.667 -7.16699 -37.834 -21.5 -51.501s-32.833 -20.5 -55.5 -20.5s-41.167 6.83301 -55.5 20.5s-21.5 30.834 -21.5 51.501c0 21.333 7.16699 38.833 21.5 52.5s32.833 20.5 55.5 20.5s41.167 -7 55.5 -21s21.5 -31.333 21.5 -52zM389 -144
c-48 -28.667 -107.668 -43.001 -179.001 -43.001c-59.333 0 -106.833 13.5 -142.5 40.5s-53.5 64.167 -53.5 111.5c0 42 17 81.667 51 119l97.5 86.5c33 29.667 49.5 57.834 49.5 84.501c0 22 -10.333 36.333 -31 43c12 14 29 21 51 21c26.667 0 49.834 -8 69.501 -24
s29.5 -38 29.5 -66c0 -36 -14.667 -70 -44 -102l-83 -73c-29.333 -26.667 -44 -52 -44 -76c0 -20.667 7.33301 -37 22 -49s33 -18 55 -18c28 0 55 9 81 27c30 20 53.667 48.333 71 85v-167z" />
    <glyph glyph-name="Agrave" unicode="&#xc0;" horiz-adv-x="747" 
d="M408 707l-226 177h167zM745 0h-275.001c28.667 4 43 19.333 43 46c0 5.33301 -5.66699 23.666 -17 54.999l-17 47h-263l-17 -46c-9.33301 -25.333 -14 -43 -14 -53c0 -29.333 15.333 -45.666 46 -48.999h-228c9.33301 2 19 7.33301 29 16c24 22 46.333 59.667 67 113
l211 537h118l219 -541c30.667 -76 63.334 -117.667 98.001 -125zM443.999 235l-99 257l-96 -257h195z" />
    <glyph glyph-name="Aacute" unicode="&#xc1;" horiz-adv-x="747" 
d="M550 886l-226 -177l60 177h166zM745 0h-275.001c28.667 4 43 19.333 43 46c0 5.33301 -5.66699 23.666 -17 54.999l-17 47h-263l-17 -46c-9.33301 -25.333 -14 -43 -14 -53c0 -29.333 15.333 -45.666 46 -48.999h-228c9.33301 2 19 7.33301 29 16
c24 22 46.333 59.667 67 113l211 537h118l219 -541c30.667 -76 63.334 -117.667 98.001 -125zM443.999 235l-99 257l-96 -257h195z" />
    <glyph glyph-name="Acircumflex" unicode="&#xc2;" horiz-adv-x="747" 
d="M530 695l-159 74l-154 -74l154 204zM745 0h-275.001c28.667 4 43 19.333 43 46c0 5.33301 -5.66699 23.666 -17 54.999l-17 47h-263l-17 -46c-9.33301 -25.333 -14 -43 -14 -53c0 -29.333 15.333 -45.666 46 -48.999h-228c9.33301 2 19 7.33301 29 16
c24 22 46.333 59.667 67 113l211 537h118l219 -541c30.667 -76 63.334 -117.667 98.001 -125zM443.999 235l-99 257l-96 -257h195z" />
    <glyph glyph-name="Atilde" unicode="&#xc3;" horiz-adv-x="747" 
d="M523 830c0 -26 -8.33398 -48.999 -25.001 -68.999s-38 -30 -64 -30c-18 0 -43.5 9.66699 -76.5 29s-56.5 29 -70.5 29c-30.667 0 -46.667 -24 -48 -72c-16 18 -24 39 -24 63c0 25.333 7.83301 47.166 23.5 65.499s36.5 27.5 62.5 27.5c19.333 0 46.833 -9.33301 82.5 -28
s59.167 -28 70.5 -28c30.667 0 46.334 24.333 47.001 73c14.667 -16.667 22 -36.667 22 -60zM744.999 0.000976562h-275.001c28.667 4 43 19.333 43 46c0 5.33301 -5.66699 23.666 -17 54.999l-17 47h-263l-17 -46c-9.33301 -25.333 -14 -43 -14 -53
c0 -29.333 15.333 -45.666 46 -48.999h-228c9.33301 2 19 7.33301 29 16c24 22 46.333 59.667 67 113l211 537h118l219 -541c30.667 -76 63.334 -117.667 98.001 -125zM443.998 235.001l-99 257l-96 -257h195z" />
    <glyph glyph-name="Adieresis" unicode="&#xc4;" horiz-adv-x="747" 
d="M531 783c0 -18.667 -6.16895 -34 -18.502 -46s-28.166 -18 -47.499 -18s-35.166 6 -47.499 18s-18.5 27.333 -18.5 46c0 18 6 33 18 45s28 18 48 18s36 -6 48 -18s18 -27 18 -45zM340.998 783c0 -18.667 -6.16797 -34 -18.501 -46s-28.166 -18 -47.499 -18
c-20 0 -36.167 6 -48.5 18s-18.5 27.333 -18.5 46c0 18 6.16699 33 18.5 45s28.5 18 48.5 18s36 -6 48 -18s18 -27 18 -45zM744.997 0h-275.001c28.667 4 43 19.333 43 46c0 5.33301 -5.66699 23.666 -17 54.999l-17 47h-263l-17 -46c-9.33301 -25.333 -14 -43 -14 -53
c0 -29.333 15.333 -45.666 46 -48.999h-228c9.33301 2 19 7.33301 29 16c24 22 46.333 59.667 67 113l211 537h118l219 -541c30.667 -76 63.334 -117.667 98.001 -125zM443.996 235l-99 257l-96 -257h195z" />
    <glyph glyph-name="Aring" unicode="&#xc5;" horiz-adv-x="747" 
d="M465 790c0 -30 -9.33301 -53.833 -28 -71.5s-41.667 -26.5 -69 -26.5s-50.666 8.83301 -69.999 26.5s-29 41.5 -29 71.5c0 29.333 9.66699 52.833 29 70.5s42.666 26.5 69.999 26.5s50.333 -8.66699 69 -26s28 -41 28 -71zM745 0h-275.001c28.667 4 43 19.333 43 46
c0 5.33301 -5.66699 23.666 -17 54.999l-17 47h-263l-17 -46c-9.33301 -25.333 -14 -43 -14 -53c0 -29.333 15.333 -45.666 46 -48.999h-228c9.33301 2 19 7.33301 29 16c24 22 46.333 59.667 67 113l211 537h118l219 -541c30.667 -76 63.334 -117.667 98.001 -125z
M417.999 790c0 16.667 -4.66699 29.833 -14 39.5s-21.333 14.5 -36 14.5s-27.167 -5 -37.5 -15s-15.5 -23 -15.5 -39c0 -16.667 5.16699 -30 15.5 -40s22.833 -15 37.5 -15c14 0 25.833 5 35.5 15s14.5 23.333 14.5 40zM443.999 234.999l-99 257l-96 -257h195z" />
    <glyph glyph-name="AE" unicode="&#xc6;" horiz-adv-x="1043" 
d="M1022 203l-33 -203h-462c38.667 8 58 49 58 123v168h-208l-109 -159c-26.667 -38.667 -40 -69.334 -40 -92.001s9.33301 -36 28 -40h-249c8.66699 2.66699 18.667 8.66699 30 18c28 23.333 60.667 61 98 113l306 429c26 36.667 39 64 39 82
c0 13.333 -5.66699 21.333 -17 24h514v-190c-13.333 66.667 -53 100 -119 100h-130v-194h113c46 0 72.333 17.333 79 52v-194c-6 34 -31.667 51 -77 51h-115v-199h139c40 0 72 8.83301 96 26.5s43.667 45.834 59 84.501zM585 382v212l-146 -212h146z" />
    <glyph glyph-name="Ccedilla" unicode="&#xc7;" horiz-adv-x="625" 
d="M592 78c-44.667 -52 -106.335 -82.334 -185.002 -91.001l-15 -23c53.333 -6.66699 80 -30 80 -70c0 -20.667 -9.33301 -38.667 -28 -54s-44 -23 -76 -23c-33.333 0 -62.333 8 -87 24c10 -2 20 -3 30 -3c23.333 0 41.833 4.83301 55.5 14.5s20.5 20.834 20.5 33.501
c0 12 -6.83301 22.5 -20.5 31.5s-33.167 13.833 -58.5 14.5l33 54c-98 6.66699 -174.667 43.667 -230 111c-49.333 60 -74 134 -74 222c0 98.667 30.333 182 91 250c67.333 74.667 158 112 272 112c70.667 0 130.334 -13 179.001 -39v-207
c-15.333 47.333 -40.666 84 -75.999 110c-32.667 24 -70.667 36 -114 36c-60 0 -108.5 -23 -145.5 -69s-55.5 -104 -55.5 -174c0 -71.333 18.667 -130.5 56 -177.5s87 -70.5 149 -70.5c36 0 72 9.33301 108 28s66.333 44 91 76v-116z" />
    <glyph glyph-name="Egrave" unicode="&#xc8;" horiz-adv-x="551" 
d="M370 708l-226 177h167zM528 203l-33 -203h-460c38 7.33301 57 47 57 119v436c0 66 -22 103 -66 111h457v-190c-13.333 66.667 -53 100 -119 100h-130v-194h113c46 0 72.333 17.333 79 52v-194c-6 34 -31.667 51 -77 51h-115v-199l139 1c40 0 72 8.66699 96 26
s43.667 45.333 59 84z" />
    <glyph glyph-name="Eacute" unicode="&#xc9;" horiz-adv-x="551" 
d="M451 865l-225 -178l59 178h166zM528 203l-33 -203h-460c38 7.33301 57 47 57 119v436c0 66 -22 103 -66 111h457v-190c-13.333 66.667 -53 100 -119 100h-130v-194h113c46 0 72.333 17.333 79 52v-194c-6 34 -31.667 51 -77 51h-115v-199l139 1c40 0 72 8.66699 96 26
s43.667 45.333 59 84z" />
    <glyph glyph-name="Ecircumflex" unicode="&#xca;" horiz-adv-x="551" 
d="M448 705l-158 75l-154 -74l154 204zM528 203l-33 -203h-460c38 7.33301 57 47 57 119v436c0 66 -22 103 -66 111h457v-190c-13.333 66.667 -53 100 -119 100h-130v-194h113c46 0 72.333 17.333 79 52v-194c-6 34 -31.667 51 -77 51h-115v-199l139 1
c40 0 72 8.66699 96 26s43.667 45.333 59 84z" />
    <glyph glyph-name="Edieresis" unicode="&#xcb;" horiz-adv-x="551" 
d="M448 804c0 -18.667 -6.16895 -34 -18.502 -46s-28.166 -18 -47.499 -18s-35.166 6 -47.499 18s-18.5 27.333 -18.5 46c0 18 6 33 18 45s28 18 48 18s36 -6 48 -18s18 -27 18 -45zM258.998 804c0 -18.667 -6.16797 -34 -18.501 -46s-28.166 -18 -47.499 -18
c-20 0 -36.333 6 -49 18s-19 27.333 -19 46c0 18 6.33301 33 19 45s29 18 49 18s36 -6 48 -18s18 -27 18 -45zM527.997 203l-33 -203h-460c38 7.33301 57 47 57 119v436c0 66 -22 103 -66 111h457v-190c-13.333 66.667 -53 100 -119 100h-130v-194h113
c46 0 72.333 17.333 79 52v-194c-6 34 -31.667 51 -77 51h-115v-199l139 1c40 0 72 8.66699 96 26s43.667 45.333 59 84z" />
    <glyph glyph-name="Igrave" unicode="&#xcc;" horiz-adv-x="314" 
d="M188 686l-226 178h167zM281 0h-248c35.333 7.33301 53 42 53 104v455c0 62.667 -17.667 98.334 -53 107.001h248c-35.333 -8.66699 -53 -44.334 -53 -107.001v-455c0 -62 17.667 -96.667 53 -104z" />
    <glyph glyph-name="Iacute" unicode="&#xcd;" horiz-adv-x="314" 
d="M352 864l-225 -177l60 177h165zM281 0h-248c35.333 7.33301 53 42 53 104v455c0 62.667 -17.667 98.334 -53 107.001h248c-35.333 -8.66699 -53 -44.334 -53 -107.001v-455c0 -62 17.667 -96.667 53 -104z" />
    <glyph glyph-name="Icircumflex" unicode="&#xce;" horiz-adv-x="314" 
d="M312 685l-158 74l-154 -74l154 204zM281 0h-248c35.333 7.33301 53 42 53 104v455c0 62.667 -17.667 98.334 -53 107.001h248c-35.333 -8.66699 -53 -44.334 -53 -107.001v-455c0 -62 17.667 -96.667 53 -104z" />
    <glyph glyph-name="Idieresis" unicode="&#xcf;" horiz-adv-x="314" 
d="M319 783c0 -18.667 -6.16797 -34 -18.501 -46s-28.5 -18 -48.5 -18c-19.333 0 -35.166 6 -47.499 18s-18.5 27.333 -18.5 46c0 18 6 33 18 45s28 18 48 18s36.167 -6 48.5 -18s18.5 -27 18.5 -45zM128.999 783c0 -18.667 -6.16797 -34.167 -18.501 -46.5
s-28.166 -18.5 -47.499 -18.5c-20 0 -36.333 6.16699 -49 18.5s-19 27.833 -19 46.5c0 18 6.33301 33 19 45s29 18 49 18s36 -6 48 -18s18 -27 18 -45zM280.998 0h-248c35.333 7.33301 53 42 53 104v455c0 62.667 -17.667 98.334 -53 107.001h248
c-35.333 -8.66699 -53 -44.334 -53 -107.001v-455c0 -62 17.667 -96.667 53 -104z" />
    <glyph glyph-name="Eth" unicode="&#xd0;" horiz-adv-x="722" 
d="M685 340c0 -96 -28 -174.665 -84 -235.998c-63.333 -69.333 -153.333 -104 -270 -104h-293c37.333 7.33301 56 48.666 56 123.999v170h-72v73h72v187c0 67.333 -21.333 104.666 -64 111.999h311c104 0 187.333 -30 250 -90s94 -138.667 94 -236zM533 332.002
c0 74.667 -18.333 133.333 -55 176c-39.333 45.333 -96.333 68 -171 68h-69v-209h122v-73h-122v-202h98c64 0 113.667 24.667 149 74c32 44 48 99.333 48 166z" />
    <glyph glyph-name="Ntilde" unicode="&#xd1;" horiz-adv-x="723" 
d="M521 810c0 -26 -8.33398 -48.999 -25.001 -68.999s-38 -30 -64 -30c-18 0 -43.5 9.66699 -76.5 29s-56.5 29 -70.5 29c-30.667 0 -46.667 -24 -48 -72c-16 18 -24 39 -24 63c0 25.333 7.83301 47.166 23.5 65.499s36.5 27.5 62.5 27.5c19.333 0 46.833 -9.33301 82.5 -28
s59.167 -28 70.5 -28c30.667 0 46.334 24.333 47.001 73c14.667 -16.667 22 -36.667 22 -60zM692.999 666.001c-36 -7.33301 -54 -44.001 -54 -110.001v-556h-104c-6 16 -13.667 33 -23 51c-22 42 -50 84 -84 126l-223 272v-340c0 -65.333 20.667 -101.666 62 -108.999h-225
c34.667 7.33301 52 44 52 110v439c0 32 -14.333 60.667 -43 86c-15.333 14 -31.333 24.333 -48 31h212l315 -393v283c0 66 -19 102.667 -57 110h220z" />
    <glyph glyph-name="Ograve" unicode="&#xd2;" horiz-adv-x="735" 
d="M442 708l-226 178h167zM708 343c0 -100 -31.333 -184.001 -94 -252.001c-64.667 -70.667 -148.667 -106 -252 -106c-98.667 0 -178 33 -238 99c-58 62.667 -87 142.334 -87 239.001c0 101.333 32.5 186.333 97.5 255s148.5 103 250.5 103c98 0 177 -32.667 237 -98
c57.333 -62.667 86 -142.667 86 -240zM563 315.999c0 76.667 -17.333 139.333 -52 188c-36.667 50.667 -86.667 76 -150 76c-52 0 -94.667 -20 -128 -60s-50 -95.333 -50 -166c0 -80.667 18 -145.167 54 -193.5s85.333 -72.5 148 -72.5c52 0 94.667 20.5 128 61.5
s50 96.5 50 166.5z" />
    <glyph glyph-name="Oacute" unicode="&#xd3;" horiz-adv-x="735" 
d="M554 886l-226 -177l60 177h166zM708 343c0 -100 -31.333 -184.001 -94 -252.001c-64.667 -70.667 -148.667 -106 -252 -106c-98.667 0 -178 33 -238 99c-58 62.667 -87 142.334 -87 239.001c0 101.333 32.5 186.333 97.5 255s148.5 103 250.5 103
c98 0 177 -32.667 237 -98c57.333 -62.667 86 -142.667 86 -240zM563 315.999c0 76.667 -17.333 139.333 -52 188c-36.667 50.667 -86.667 76 -150 76c-52 0 -94.667 -20 -128 -60s-50 -95.333 -50 -166c0 -80.667 18 -145.167 54 -193.5s85.333 -72.5 148 -72.5
c52 0 94.667 20.5 128 61.5s50 96.5 50 166.5z" />
    <glyph glyph-name="Ocircumflex" unicode="&#xd4;" horiz-adv-x="735" 
d="M547 707l-158 74l-154 -74l154 204zM708 343c0 -100 -31.333 -184.001 -94 -252.001c-64.667 -70.667 -148.667 -106 -252 -106c-98.667 0 -178 33 -238 99c-58 62.667 -87 142.334 -87 239.001c0 101.333 32.5 186.333 97.5 255s148.5 103 250.5 103
c98 0 177 -32.667 237 -98c57.333 -62.667 86 -142.667 86 -240zM563 315.999c0 76.667 -17.333 139.333 -52 188c-36.667 50.667 -86.667 76 -150 76c-52 0 -94.667 -20 -128 -60s-50 -95.333 -50 -166c0 -80.667 18 -145.167 54 -193.5s85.333 -72.5 148 -72.5
c52 0 94.667 20.5 128 61.5s50 96.5 50 166.5z" />
    <glyph glyph-name="Otilde" unicode="&#xd5;" horiz-adv-x="735" 
d="M534 832c0 -26 -8.33105 -48.998 -24.998 -68.998s-38 -30 -64 -30c-18 0 -43.5 9.5 -76.5 28.5s-56.5 28.5 -70.5 28.5c-30.667 0 -46.667 -24 -48 -72c-16 18 -24 39 -24 63c0 25.333 7.83301 47.166 23.5 65.499s36.5 27.5 62.5 27.5
c19.333 0 46.666 -9.33301 81.999 -28s58.666 -28 69.999 -28c31.333 0 47.333 24.333 48 73c14.667 -16.667 22 -36.334 22 -59.001zM708.002 343.002c0 -100 -31.333 -184.001 -94 -252.001c-64.667 -70.667 -148.667 -106 -252 -106c-98.667 0 -178 33 -238 99
c-58 62.667 -87 142.334 -87 239.001c0 101.333 32.5 186.333 97.5 255s148.5 103 250.5 103c98 0 177 -32.667 237 -98c57.333 -62.667 86 -142.667 86 -240zM563.002 316.001c0 76.667 -17.333 139.333 -52 188c-36.667 50.667 -86.667 76 -150 76
c-52 0 -94.667 -20 -128 -60s-50 -95.333 -50 -166c0 -80.667 18 -145.167 54 -193.5s85.333 -72.5 148 -72.5c52 0 94.667 20.5 128 61.5s50 96.5 50 166.5z" />
    <glyph glyph-name="Odieresis" unicode="&#xd6;" horiz-adv-x="735" 
d="M541 784c0 -18.667 -6.33398 -34.167 -19.001 -46.5s-28.667 -18.5 -48 -18.5s-35.166 6.16699 -47.499 18.5s-18.5 27.833 -18.5 46.5c0 18 6 33 18 45s28 18 48 18s36.167 -6 48.5 -18s18.5 -27 18.5 -45zM350.999 784c0 -18.667 -6.16797 -34.167 -18.501 -46.5
s-28.166 -18.5 -47.499 -18.5c-20 0 -36.333 6.16699 -49 18.5s-19 27.833 -19 46.5c0 18 6.33301 33 19 45s29 18 49 18s36 -6 48 -18s18 -27 18 -45zM707.998 343c0 -100 -31.333 -184.001 -94 -252.001c-64.667 -70.667 -148.667 -106 -252 -106
c-98.667 0 -178 33 -238 99c-58 62.667 -87 142.334 -87 239.001c0 101.333 32.5 186.333 97.5 255s148.5 103 250.5 103c98 0 177 -32.667 237 -98c57.333 -62.667 86 -142.667 86 -240zM562.998 315.999c0 76.667 -17.333 139.333 -52 188
c-36.667 50.667 -86.667 76 -150 76c-52 0 -94.667 -20 -128 -60s-50 -95.333 -50 -166c0 -80.667 18 -145.167 54 -193.5s85.333 -72.5 148 -72.5c52 0 94.667 20.5 128 61.5s50 96.5 50 166.5z" />
    <glyph glyph-name="multiply" unicode="&#xd7;" horiz-adv-x="689" 
d="M626 64l-62 -63l-219 220l-219 -220l-62 63l219 219l-219 220l62 62l219 -219l219 219l62 -63l-219 -219z" />
    <glyph glyph-name="Oslash" unicode="&#xd8;" horiz-adv-x="745" 
d="M708 342c0 -98.667 -30.332 -181.666 -90.999 -248.999c-64.667 -72.667 -149.667 -109 -255 -109c-58 0 -110.333 12.333 -157 37l-44 -65l-69 18l57 86c-75.333 65.333 -113 153.333 -113 264c0 98.667 31 182 93 250c65.333 72 150.666 108 255.999 108
c58 0 110.333 -12.667 157 -38l38 57l67 -20l-50 -76c74 -64.667 111 -152.334 111 -263.001zM473.001 542.001c-32 26 -69.333 39 -112 39c-52 0 -94.333 -19.667 -127 -59c-34 -41.333 -51 -97.333 -51 -168s15 -129 45 -175zM563.001 316.001
c0 69.333 -14.667 126.667 -44 172l-246 -363c32 -25.333 69.333 -38 112 -38c52 0 94.667 20.667 128 62s50 97 50 167z" />
    <glyph glyph-name="Ugrave" unicode="&#xd9;" horiz-adv-x="698" 
d="M394 708l-226 177h167zM674 666c-38.667 -6 -57.999 -43.333 -57.999 -112v-315c0 -169.333 -87 -254 -261 -254c-182.667 0 -274 81.333 -274 244v325c0 68 -17.667 105.333 -53 112h250c-35.333 -6.66699 -53 -43 -53 -109v-322c0 -54.667 11 -93.667 33 -117
s57 -35 105 -35c47.333 0 81.166 12.333 101.499 37s30.5 63 30.5 115v319c0 68 -19.667 105.333 -59 112h238z" />
    <glyph glyph-name="Uacute" unicode="&#xda;" horiz-adv-x="698" 
d="M563 884l-226 -178l60 178h166zM674 666c-38.667 -6 -57.999 -43.333 -57.999 -112v-315c0 -169.333 -87 -254 -261 -254c-182.667 0 -274 81.333 -274 244v325c0 68 -17.667 105.333 -53 112h250c-35.333 -6.66699 -53 -43 -53 -109v-322c0 -54.667 11 -93.667 33 -117
s57 -35 105 -35c47.333 0 81.166 12.333 101.499 37s30.5 63 30.5 115v319c0 68 -19.667 105.333 -59 112h238z" />
    <glyph glyph-name="Ucircumflex" unicode="&#xdb;" horiz-adv-x="698" 
d="M521 706l-158 74l-154 -74l154 204zM674 666c-38.667 -6 -57.999 -43.333 -57.999 -112v-315c0 -169.333 -87 -254 -261 -254c-182.667 0 -274 81.333 -274 244v325c0 68 -17.667 105.333 -53 112h250c-35.333 -6.66699 -53 -43 -53 -109v-322
c0 -54.667 11 -93.667 33 -117s57 -35 105 -35c47.333 0 81.166 12.333 101.499 37s30.5 63 30.5 115v319c0 68 -19.667 105.333 -59 112h238z" />
    <glyph glyph-name="Udieresis" unicode="&#xdc;" horiz-adv-x="698" 
d="M523 784c0 -18.667 -6.33398 -34.167 -19.001 -46.5s-28.667 -18.5 -48 -18.5s-35.166 6.16699 -47.499 18.5s-18.5 27.833 -18.5 46.5c0 18 6 33 18 45s28 18 48 18s36.167 -6 48.5 -18s18.5 -27 18.5 -45zM332.999 784c0 -18.667 -6.16797 -34.167 -18.501 -46.5
s-28.166 -18.5 -47.499 -18.5c-20 0 -36.333 6.16699 -49 18.5s-19 27.833 -19 46.5c0 18 6.33301 33 19 45s29 18 49 18s36 -6 48 -18s18 -27 18 -45zM673.998 666c-38.667 -6 -57.999 -43.333 -57.999 -112v-315c0 -169.333 -87 -254 -261 -254
c-182.667 0 -274 81.333 -274 244v325c0 68 -17.667 105.333 -53 112h250c-35.333 -6.66699 -53 -43 -53 -109v-322c0 -54.667 11 -93.667 33 -117s57 -35 105 -35c47.333 0 81.166 12.333 101.499 37s30.5 63 30.5 115v319c0 68 -19.667 105.333 -59 112h238z" />
    <glyph glyph-name="Yacute" unicode="&#xdd;" horiz-adv-x="670" 
d="M565 881l-225 -178l60 178h165zM671 666c-8 -2.66699 -17.002 -8.33203 -27.002 -16.999c-23.333 -20 -48.666 -53.333 -75.999 -100l-160 -269v-168c0 -68 17.333 -105.333 52 -112h-250c36 6.66699 54 44 54 112v163l-158 276
c-39.333 69.333 -74.666 107.666 -105.999 114.999h272c-21.333 -2.66699 -32 -15.334 -32 -38.001c0 -19.333 8.33301 -43.333 25 -72l95 -164l85 147c24 41.333 36 71 36 89c0 22.667 -10 35.334 -30 38.001h220z" />
    <glyph glyph-name="Thorn" unicode="&#xde;" horiz-adv-x="591" 
d="M566 349c0 -62 -21.667 -113.333 -65 -154c-46 -42.667 -106.333 -64 -181 -64c-34 0 -64.667 4 -92 12v-39c0 -62 17.667 -96.667 53 -104h-248c35.333 7.33301 53 42 53 104v458c0 62.667 -17.667 97.334 -53 104.001h248c-35.333 -6.66699 -53 -41.334 -53 -104.001
v-16c44 5.33301 79 8 105 8c68.667 0 124.667 -18.333 168 -55s65 -86.667 65 -150zM418 345c0 36 -9.49902 64.5 -28.499 85.5s-46.167 31.5 -81.5 31.5c-18.667 0 -45.334 -2.66699 -80.001 -8v-221c20 -7.33301 43.667 -11 71 -11c36.667 0 65.667 11 87 33s32 52 32 90z
" />
    <glyph glyph-name="germandbls" unicode="&#xdf;" horiz-adv-x="648" 
d="M620 133c0 -46.667 -18.835 -82.834 -56.502 -108.501s-85.5 -38.5 -143.5 -38.5c-69.333 0 -123 14.667 -161 44l36 99c12.667 -16.667 31.667 -30.667 57 -42s49 -17 71 -17c45.333 0 68 15.667 68 47c0 24 -20.667 49 -62 75l-114 67c-41.333 30 -62 62.333 -62 97
c0 27.333 12 51.333 36 72l68 49c24 20 36 41.667 36 65c0 24 -8.5 43.333 -25.5 58s-38.167 22 -63.5 22c-27.333 0 -51 -9.33301 -71 -28c-23.333 -22 -35 -52 -35 -90v-386c0 -70.667 17.333 -110 52 -118h-231c34.667 6 52 45.333 52 118v354
c0 71.333 27.333 128.333 82 171c49.333 38 109.333 57 180 57c54.667 0 100.834 -12.667 138.501 -38s56.5 -60 56.5 -104c0 -34 -12.667 -63.667 -38 -89c-9.33301 -9.33301 -32.666 -26.333 -69.999 -51c-25.333 -16.667 -38 -31.667 -38 -45
c0 -16 20.667 -34.667 62 -56c59.333 -31.333 97.333 -53.666 114 -66.999c41.333 -33.333 62 -72.333 62 -117z" />
    <glyph glyph-name="agrave" unicode="&#xe0;" horiz-adv-x="509" 
d="M304 506l-226 177h167zM525 58l-122.002 -80.999c-16.667 2.66699 -33 10.5 -49 23.5s-25.667 25.833 -29 38.5c-27.333 -36 -74 -54 -140 -54c-42 0 -76.333 11 -103 33s-40 51.333 -40 88c0 39.333 23.5 74.666 70.5 105.999s111.833 55.666 194.5 72.999v38
c0 57.333 -22 86 -66 86c-23.333 0 -41.166 -4.83301 -53.499 -14.5s-18.5 -21.167 -18.5 -34.5c0 -16.667 6.66699 -28 20 -34l-126 -48c-7.33301 18 -11 36.667 -11 56c0 44.667 21 81.334 63 110.001c38.667 27.333 84.667 41 138 41c120 0 180 -50.333 180 -151v-185
c0 -62 27 -93 81 -93c0.666992 0 4.33398 0.666992 11.001 2zM306.998 142.001v73c-96 -19.333 -144 -51 -144 -95c0 -16 5.83301 -29.167 17.5 -39.5s26.834 -15.5 45.501 -15.5c21.333 0 40.166 7 56.499 21s24.5 32.667 24.5 56z" />
    <glyph glyph-name="aacute" unicode="&#xe1;" horiz-adv-x="509" 
d="M433 683l-226 -177l60 177h166zM525 58l-122.002 -80.999c-16.667 2.66699 -33 10.5 -49 23.5s-25.667 25.833 -29 38.5c-27.333 -36 -74 -54 -140 -54c-42 0 -76.333 11 -103 33s-40 51.333 -40 88c0 39.333 23.5 74.666 70.5 105.999s111.833 55.666 194.5 72.999v38
c0 57.333 -22 86 -66 86c-23.333 0 -41.166 -4.83301 -53.499 -14.5s-18.5 -21.167 -18.5 -34.5c0 -16.667 6.66699 -28 20 -34l-126 -48c-7.33301 18 -11 36.667 -11 56c0 44.667 21 81.334 63 110.001c38.667 27.333 84.667 41 138 41c120 0 180 -50.333 180 -151v-185
c0 -62 27 -93 81 -93c0.666992 0 4.33398 0.666992 11.001 2zM306.998 142.001v73c-96 -19.333 -144 -51 -144 -95c0 -16 5.83301 -29.167 17.5 -39.5s26.834 -15.5 45.501 -15.5c21.333 0 40.166 7 56.499 21s24.5 32.667 24.5 56z" />
    <glyph glyph-name="acircumflex" unicode="&#xe2;" horiz-adv-x="509" 
d="M407 507l-158 74l-154 -74l154 204zM525 58l-122.002 -80.999c-16.667 2.66699 -33 10.5 -49 23.5s-25.667 25.833 -29 38.5c-27.333 -36 -74 -54 -140 -54c-42 0 -76.333 11 -103 33s-40 51.333 -40 88c0 39.333 23.5 74.666 70.5 105.999s111.833 55.666 194.5 72.999
v38c0 57.333 -22 86 -66 86c-23.333 0 -41.166 -4.83301 -53.499 -14.5s-18.5 -21.167 -18.5 -34.5c0 -16.667 6.66699 -28 20 -34l-126 -48c-7.33301 18 -11 36.667 -11 56c0 44.667 21 81.334 63 110.001c38.667 27.333 84.667 41 138 41c120 0 180 -50.333 180 -151v-185
c0 -62 27 -93 81 -93c0.666992 0 4.33398 0.666992 11.001 2zM306.998 142.001v73c-96 -19.333 -144 -51 -144 -95c0 -16 5.83301 -29.167 17.5 -39.5s26.834 -15.5 45.501 -15.5c21.333 0 40.166 7 56.499 21s24.5 32.667 24.5 56z" />
    <glyph glyph-name="atilde" unicode="&#xe3;" horiz-adv-x="509" 
d="M402 640c0 -26 -8.33496 -48.999 -25.002 -68.999s-38 -30 -64 -30c-18 0 -43.333 9.5 -76 28.5s-56 28.5 -70 28.5c-31.333 0 -47.666 -23.667 -48.999 -71c-16 18 -24 38.667 -24 62c0 25.333 7.83301 47.333 23.5 66s36.5 28 62.5 28
c19.333 0 46.833 -9.33301 82.5 -28s59.167 -28 70.5 -28c30.667 0 46.334 24 47.001 72c14.667 -16.667 22 -36.334 22 -59.001zM524.998 58.001l-122.002 -80.999c-16.667 2.66699 -33 10.5 -49 23.5s-25.667 25.833 -29 38.5c-27.333 -36 -74 -54 -140 -54
c-42 0 -76.333 11 -103 33s-40 51.333 -40 88c0 39.333 23.5 74.666 70.5 105.999s111.833 55.666 194.5 72.999v38c0 57.333 -22 86 -66 86c-23.333 0 -41.166 -4.83301 -53.499 -14.5s-18.5 -21.167 -18.5 -34.5c0 -16.667 6.66699 -28 20 -34l-126 -48
c-7.33301 18 -11 36.667 -11 56c0 44.667 21 81.334 63 110.001c38.667 27.333 84.667 41 138 41c120 0 180 -50.333 180 -151v-185c0 -62 27 -93 81 -93c0.666992 0 4.33398 0.666992 11.001 2zM306.996 142.002v73c-96 -19.333 -144 -51 -144 -95
c0 -16 5.83301 -29.167 17.5 -39.5s26.834 -15.5 45.501 -15.5c21.333 0 40.166 7 56.499 21s24.5 32.667 24.5 56z" />
    <glyph glyph-name="adieresis" unicode="&#xe4;" horiz-adv-x="509" 
d="M412 615c0 -18.667 -6.16797 -34 -18.501 -46s-28.5 -18 -48.5 -18c-19.333 0 -35.166 6 -47.499 18s-18.5 27.333 -18.5 46c0 18 6 33 18 45s28 18 48 18s36.167 -6 48.5 -18s18.5 -27 18.5 -45zM221.999 615c0 -18.667 -6.16797 -34 -18.501 -46
s-28.166 -18 -47.499 -18c-20 0 -36.333 6 -49 18s-19 27.333 -19 46c0 18 6.33301 33 19 45s29 18 49 18s36 -6 48 -18s18 -27 18 -45zM525.998 58l-123 -80.999c-16.667 2.66699 -32.834 10.5 -48.501 23.5s-25.167 25.833 -28.5 38.5c-27.333 -36 -74.333 -54 -141 -54
c-42 0 -76.167 11 -102.5 33s-39.5 51.333 -39.5 88c0 39.333 23.333 74.666 70 105.999s111.334 55.666 194.001 72.999v38c0 57.333 -22 86 -66 86c-23.333 0 -41.666 -5.33301 -54.999 -16c-10.667 -8.66699 -16 -19.667 -16 -33c0 -16.667 6.66699 -28 20 -34l-127 -48
c-7.33301 18 -11 36.667 -11 56c0 44.667 21 81.334 63 110.001c39.333 27.333 85.666 41 138.999 41c120 0 180 -50.333 180 -151v-185c0 -62 26.667 -93 80 -93c1.33301 0 5.33301 0.666992 12 2zM306.998 142.001v73c-96 -19.333 -144 -51 -144 -95
c0 -16 6 -29.167 18 -39.5s27.333 -15.5 46 -15.5c21.333 0 40 7 56 21s24 32.667 24 56z" />
    <glyph glyph-name="aring" unicode="&#xe5;" horiz-adv-x="509" 
d="M348 615c0 -30 -9.5 -53.833 -28.5 -71.5s-42.167 -26.5 -69.5 -26.5s-50.666 8.83301 -69.999 26.5s-29 41.5 -29 71.5c0 29.333 9.66699 52.833 29 70.5s42.666 26.5 69.999 26.5s50.333 -8.33301 69 -25c19.333 -18.667 29 -42.667 29 -72zM525 58l-122.002 -80.999
c-16.667 2.66699 -33 10.5 -49 23.5s-25.667 25.833 -29 38.5c-27.333 -36 -74 -54 -140 -54c-42 0 -76.333 11 -103 33s-40 51.333 -40 88c0 39.333 23.5 74.666 70.5 105.999s111.833 55.666 194.5 72.999v38c0 57.333 -22 86 -66 86
c-23.333 0 -41.166 -4.83301 -53.499 -14.5s-18.5 -21.167 -18.5 -34.5c0 -16.667 6.66699 -28 20 -34l-126 -48c-7.33301 18 -11 36.667 -11 56c0 44.667 21 81.334 63 110.001c38.667 27.333 84.667 41 138 41c120 0 180 -50.333 180 -151v-185c0 -62 27 -93 81 -93
c0.666992 0 4.33398 0.666992 11.001 2zM299.998 615.001c0 16.667 -4.66699 29.833 -14 39.5s-21.333 14.5 -36 14.5s-27.167 -5 -37.5 -15s-15.5 -23 -15.5 -39c0 -16.667 5.16699 -30 15.5 -40s22.833 -15 37.5 -15c14 0 25.833 5 35.5 15s14.5 23.333 14.5 40z
M306.998 142v73c-96 -19.333 -144 -51 -144 -95c0 -16 5.83301 -29.167 17.5 -39.5s26.834 -15.5 45.501 -15.5c21.333 0 40.166 7 56.499 21s24.5 32.667 24.5 56z" />
    <glyph glyph-name="ae" unicode="&#xe6;" horiz-adv-x="761" 
d="M731 150c-20.667 -110.667 -88.6689 -165.997 -204.002 -165.997c-68.667 0 -124 25.667 -166 77c-33.333 -50.667 -89.333 -76 -168 -76c-46.667 0 -83.5 11.167 -110.5 33.5s-40.5 51.5 -40.5 87.5c0 39.333 23.5 74.666 70.5 105.999s111.833 55.666 194.5 72.999v38
c0 57.333 -22 86 -66 86c-23.333 0 -41.666 -5.33301 -54.999 -16c-10.667 -8.66699 -16 -19.667 -16 -33c0 -16.667 6.66699 -28 20 -34l-127 -48c-7.33301 18 -11 36.667 -11 56c0 44.667 21 81.334 63 110.001c38.667 27.333 84.667 41 138 41
c67.333 0 115.333 -17.667 144 -53c36 35.333 80 53 132 53c61.333 0 109 -23.333 143 -70s51.333 -112.334 52 -197.001h-295c0.666992 -2.66699 1.66699 -6.33398 3 -11.001c8.66699 -38 26.334 -68.5 53.001 -91.5s58.334 -34.5 95.001 -34.5
c61.333 0 111.666 23 150.999 69zM602.998 290.003c0 33.333 -7.00098 60.833 -21.001 82.5s-33 32.5 -57 32.5c-25.333 0 -47.166 -11.167 -65.499 -33.5s-28.5 -49.5 -30.5 -81.5h174zM306.997 142.003v73c-96 -19.333 -144 -51 -144 -95c0 -16 6 -29.167 18 -39.5
s27.333 -15.5 46 -15.5c21.333 0 40 6.83301 56 20.5s24 32.5 24 56.5z" />
    <glyph glyph-name="ccedilla" unicode="&#xe7;" horiz-adv-x="461" 
d="M440 158c-8.66699 -45.333 -27.833 -82.833 -57.5 -112.5s-64.167 -47.834 -103.5 -54.501l-16 -23c53.333 -6.66699 80 -30 80 -70c0 -20.667 -8.66699 -38.334 -26 -53.001c-19.333 -16 -45 -24 -77 -24c-34 0 -63.333 8 -88 24c10 -2 20.333 -3 31 -3
c23.333 0 41.833 4.83301 55.5 14.5s20.5 20.834 20.5 33.501c0 12 -6.83301 22.5 -20.5 31.5s-33.167 13.833 -58.5 14.5l33 54c-57.333 7.33301 -101.666 32.333 -132.999 75c-30 40 -45 91.333 -45 154c0 80.667 23.333 146.334 70 197.001c44 48.667 98.667 73 164 73
c46.667 0 84.667 -14.333 114 -43s45 -66 47 -112l-122 -49c4.66699 10.667 7 23 7 37c0 22.667 -5.83301 41 -17.5 55s-27.834 21 -48.501 21c-28 0 -50.5 -13.167 -67.5 -39.5s-25.5 -59.166 -25.5 -98.499c0 -48.667 11.667 -89.334 35 -122.001
c26 -36.667 60.667 -55 104 -55c54.667 0 103 25 145 75z" />
    <glyph glyph-name="egrave" unicode="&#xe8;" horiz-adv-x="492" 
d="M312 506l-226 177h167zM461 150c-20.667 -110 -88.668 -164.998 -204.001 -164.998c-67.333 0 -121.166 22.667 -161.499 68s-60.5 102.666 -60.5 171.999c0 72 20.333 132.667 61 182c42 52 96.667 78 164 78c61.333 0 108.833 -23.333 142.5 -70
s50.834 -112.334 51.501 -197.001h-294c0.666992 -5.33301 1.33398 -9 2.00098 -11c7.33301 -38 24.666 -68.5 51.999 -91.5s59.333 -34.5 96 -34.5c61.333 0 111.666 23 150.999 69zM332.999 290.002c0 33.333 -7.00098 60.833 -21.001 82.5s-33 32.5 -57 32.5
c-25.333 0 -47.166 -11.167 -65.499 -33.5s-28.5 -49.5 -30.5 -81.5h174z" />
    <glyph glyph-name="eacute" unicode="&#xe9;" horiz-adv-x="492" 
d="M429 683l-225 -177l59 177h166zM461 150c-20.667 -110 -88.667 -164.998 -204 -164.998c-67.333 0 -121.166 22.667 -161.499 68s-60.5 102.666 -60.5 171.999c0 72 20 132.667 60 182c42 52 96.667 78 164 78c61.333 0 109 -23.333 143 -70s51.333 -112.334 52 -197.001
h-294c0.666992 -5.33301 1.33398 -9 2.00098 -11c7.33301 -38 24.666 -68.5 51.999 -91.5s59.333 -34.5 96 -34.5c61.333 0 111.666 23 150.999 69zM333 290.002c0 33.333 -7.00098 60.833 -21.001 82.5s-33 32.5 -57 32.5c-25.333 0 -47.166 -11.167 -65.499 -33.5
s-28.5 -49.5 -30.5 -81.5h174z" />
    <glyph glyph-name="ecircumflex" unicode="&#xea;" horiz-adv-x="492" 
d="M410 507l-158 74l-154 -74l154 204zM461 150c-20.667 -110 -88.668 -164.998 -204.001 -164.998c-67.333 0 -121.166 22.667 -161.499 68s-60.5 102.666 -60.5 171.999c0 72 20.333 132.667 61 182c42 52 96.667 78 164 78c61.333 0 108.833 -23.333 142.5 -70
s50.834 -112.334 51.501 -197.001h-294c0.666992 -5.33301 1.33398 -9 2.00098 -11c7.33301 -38 24.666 -68.5 51.999 -91.5s59.333 -34.5 96 -34.5c61.333 0 111.666 23 150.999 69zM332.999 290.002c0 33.333 -7.00098 60.833 -21.001 82.5s-33 32.5 -57 32.5
c-25.333 0 -47.166 -11.167 -65.499 -33.5s-28.5 -49.5 -30.5 -81.5h174z" />
    <glyph glyph-name="edieresis" unicode="&#xeb;" horiz-adv-x="492" 
d="M415 615c0 -18.667 -6.16797 -34 -18.501 -46s-28.5 -18 -48.5 -18c-19.333 0 -35.166 6 -47.499 18s-18.5 27.333 -18.5 46c0 18 6 33 18 45s28 18 48 18s36.167 -6 48.5 -18s18.5 -27 18.5 -45zM224.999 615c0 -18.667 -6.16797 -34 -18.501 -46
s-28.166 -18 -47.499 -18c-20 0 -36.333 6 -49 18s-19 27.333 -19 46c0 18 6.33301 33 19 45s29 18 49 18s36 -6 48 -18s18 -27 18 -45zM460.998 150c-20.667 -110 -88.668 -164.998 -204.001 -164.998c-67.333 0 -121.166 22.667 -161.499 68s-60.5 102.666 -60.5 171.999
c0 72 20.333 132.667 61 182c42 52 96.667 78 164 78c61.333 0 108.833 -23.333 142.5 -70s50.834 -112.334 51.501 -197.001h-294c0.666992 -5.33301 1.33398 -9 2.00098 -11c7.33301 -38 24.666 -68.5 51.999 -91.5s59.333 -34.5 96 -34.5c61.333 0 111.666 23 150.999 69
zM332.997 290.002c0 33.333 -7.00098 60.833 -21.001 82.5s-33 32.5 -57 32.5c-25.333 0 -47.166 -11.167 -65.499 -33.5s-28.5 -49.5 -30.5 -81.5h174z" />
    <glyph glyph-name="igrave" unicode="&#xec;" horiz-adv-x="266" 
d="M175 506l-226 177h167zM249 0l-232 0.000976562c34.667 6 52 41.333 52 106v218c0 63.333 -19.333 93.666 -58 90.999c-0.666992 1.33301 -5 1 -13 -1l199 75v-383c0 -64 17.333 -99.333 52 -106z" />
    <glyph glyph-name="iacute" unicode="&#xed;" horiz-adv-x="266" 
d="M296 683l-226 -177l60 177h166zM249 0l-232 0.000976562c34.667 6 52 41.333 52 106v218c0 63.333 -19.333 93.666 -58 90.999c-0.666992 1.33301 -5 1 -13 -1l199 75v-383c0 -64 17.333 -99.333 52 -106z" />
    <glyph glyph-name="icircumflex" unicode="&#xee;" horiz-adv-x="266" 
d="M289 507l-159 74l-154 -74l154 204zM249 0h-232c34.667 6 52 41.333 52 106v218c0 64 -19.333 94.333 -58 91c-0.666992 1.33301 -4.66699 1 -12 -1l198 75v-383c0 -64 17.333 -99.333 52 -106z" />
    <glyph glyph-name="idieresis" unicode="&#xef;" horiz-adv-x="266" 
d="M292 615c0 -18.667 -6.16797 -34 -18.501 -46s-28.5 -18 -48.5 -18c-19.333 0 -35.166 6 -47.499 18s-18.5 27.333 -18.5 46c0 18 6 33 18 45s28 18 48 18s36.167 -6 48.5 -18s18.5 -27 18.5 -45zM101.999 615c0 -18.667 -6.16797 -34 -18.501 -46
s-28.166 -18 -47.499 -18c-20 0 -36.333 6 -49 18s-19 27.333 -19 46c0 18 6.33301 33 19 45s29 18 49 18s36 -6 48 -18s18 -27 18 -45zM248.998 0l-231 0.000976562c34 6 51 41.333 51 106v218c0 63.333 -19 93.666 -57 90.999c-0.666992 1.33301 -5 1 -13 -1l199 75v-383
c0 -64 17 -99.333 51 -106z" />
    <glyph glyph-name="eth" unicode="&#xf0;" horiz-adv-x="530" 
d="M498 262c0 -82.667 -19.6689 -148.999 -59.002 -198.999c-42 -52.667 -101 -79 -177 -79c-70 0 -126.333 27 -169 81c-38.667 49.333 -58 109.333 -58 180c0 60 14.667 112.667 44 158c34.667 54 82.334 81 143.001 81c66.667 0 117.667 -30.333 153 -91
c-29.333 67.333 -68.666 123.333 -117.999 168l-99 -42l-35 41l85 36c-26 17.333 -53.333 31 -82 41l134 59c24 -14.667 47 -31.667 69 -51l96 41l35 -41l-89 -39c84.667 -94.667 127 -209.334 127 -344.001zM366.998 194.001c0 58 -14.667 106.334 -44 145.001
c-26.667 34 -56 51 -88 51c-21.333 0 -38.333 -8.33301 -51 -25c-14.667 -19.333 -22 -46.333 -22 -81c0 -59.333 14.667 -109.333 44 -150c26.667 -37.333 56 -56 88 -56c21.333 0 38.333 9.33301 51 28c14.667 21.333 22 50.666 22 87.999z" />
    <glyph glyph-name="ntilde" unicode="&#xf1;" horiz-adv-x="546" 
d="M419 640c0 -26 -8.33496 -48.999 -25.002 -68.999s-38 -30 -64 -30c-18 0 -43.333 9.5 -76 28.5s-56 28.5 -70 28.5c-31.333 0 -47.666 -23.667 -48.999 -71c-16 18 -24 38.667 -24 62c0 25.333 7.83301 47.333 23.5 66s36.5 28 62.5 28
c19.333 0 46.833 -9.33301 82.5 -28s59.167 -28 70.5 -28c30.667 0 46.334 24 47.001 72c14.667 -16.667 22 -36.334 22 -59.001zM535.998 0.000976562l-225.001 -0.000976562c30.667 6 46 40 46 102v189c0 64.667 -22.667 97 -68 97
c-25.333 0 -47.166 -9.66699 -65.499 -29s-27.5 -43.666 -27.5 -72.999v-184c0 -62 16.333 -96 49 -102h-228c34.667 6 52 40.667 52 104v218c0 61.333 -18.333 92 -55 92h-14l192 75l1 -72c16.667 19.333 39 35.5 67 48.5s54.667 19.5 80 19.5
c96.667 0 145 -54.333 145 -163v-216c0 -64.667 17 -100 51 -106z" />
    <glyph glyph-name="ograve" unicode="&#xf2;" horiz-adv-x="557" 
d="M332 506l-226 177h167zM526 246c0 -74.667 -22.667 -136.333 -68 -185c-47.333 -50.667 -108.333 -76 -183 -76c-72.667 0 -130.667 22.333 -174 67s-65 102.667 -65 174c0 74.667 23.333 136.5 70 185.5s106 73.5 178 73.5c73.333 0 132 -22.167 176 -66.5
s66 -101.833 66 -172.5zM394 225.001c0 46 -11.332 85.833 -33.999 119.5s-52.334 50.5 -89.001 50.5c-32 0 -57.5 -13.833 -76.5 -41.5s-28.5 -62.5 -28.5 -104.5c0 -46.667 11.5 -87.334 34.5 -122.001s52.5 -52 88.5 -52c32 0 57.5 14.333 76.5 43
s28.5 64.334 28.5 107.001z" />
    <glyph glyph-name="oacute" unicode="&#xf3;" horiz-adv-x="557" 
d="M458 683l-226 -177l60 177h166zM526 246c0 -74.667 -22.667 -136.333 -68 -185c-47.333 -50.667 -108.333 -76 -183 -76c-72.667 0 -130.667 22.333 -174 67s-65 102.667 -65 174c0 74.667 23.333 136.5 70 185.5s106 73.5 178 73.5c73.333 0 132 -22.167 176 -66.5
s66 -101.833 66 -172.5zM394 225.001c0 46 -11.332 85.833 -33.999 119.5s-52.334 50.5 -89.001 50.5c-32 0 -57.5 -13.833 -76.5 -41.5s-28.5 -62.5 -28.5 -104.5c0 -46.667 11.5 -87.334 34.5 -122.001s52.5 -52 88.5 -52c32 0 57.5 14.333 76.5 43
s28.5 64.334 28.5 107.001z" />
    <glyph glyph-name="ocircumflex" unicode="&#xf4;" horiz-adv-x="557" 
d="M436 507l-158 74l-154 -74l154 204zM526 246c0 -74.667 -22.667 -136.333 -68 -185c-47.333 -50.667 -108.333 -76 -183 -76c-72.667 0 -130.667 22.333 -174 67s-65 102.667 -65 174c0 74.667 23.333 136.5 70 185.5s106 73.5 178 73.5c73.333 0 132 -22.167 176 -66.5
s66 -101.833 66 -172.5zM394 225.001c0 46 -11.332 85.833 -33.999 119.5s-52.334 50.5 -89.001 50.5c-32 0 -57.5 -13.833 -76.5 -41.5s-28.5 -62.5 -28.5 -104.5c0 -46.667 11.5 -87.334 34.5 -122.001s52.5 -52 88.5 -52c32 0 57.5 14.333 76.5 43
s28.5 64.334 28.5 107.001z" />
    <glyph glyph-name="otilde" unicode="&#xf5;" horiz-adv-x="557" 
d="M426 640c0 -26 -8.33398 -48.999 -25.001 -68.999s-38 -30 -64 -30c-18 0 -43.5 9.5 -76.5 28.5s-56.5 28.5 -70.5 28.5c-30.667 0 -46.667 -23.667 -48 -71c-16 18 -24 38.667 -24 62c0 25.333 7.83301 47.333 23.5 66s36.5 28 62.5 28
c19.333 0 46.833 -9.33301 82.5 -28s59.167 -28 70.5 -28c30.667 0 46.334 24 47.001 72c14.667 -16.667 22 -36.334 22 -59.001zM525.999 246.001c0 -74.667 -22.667 -136.333 -68 -185c-47.333 -50.667 -108.333 -76 -183 -76c-72.667 0 -130.667 22.333 -174 67
s-65 102.667 -65 174c0 74.667 23.333 136.5 70 185.5s106 73.5 178 73.5c73.333 0 132 -22.167 176 -66.5s66 -101.833 66 -172.5zM393.999 225.002c0 46 -11.332 85.833 -33.999 119.5s-52.334 50.5 -89.001 50.5c-32 0 -57.5 -13.833 -76.5 -41.5
s-28.5 -62.5 -28.5 -104.5c0 -46.667 11.5 -87.334 34.5 -122.001s52.5 -52 88.5 -52c32 0 57.5 14.333 76.5 43s28.5 64.334 28.5 107.001z" />
    <glyph glyph-name="odieresis" unicode="&#xf6;" horiz-adv-x="557" 
d="M438 615c0 -18.667 -6.16797 -34 -18.501 -46s-28.5 -18 -48.5 -18c-19.333 0 -35.166 6 -47.499 18s-18.5 27.333 -18.5 46c0 18 6 33 18 45s28 18 48 18s36.167 -6 48.5 -18s18.5 -27 18.5 -45zM247.999 615c0 -18.667 -6.16797 -34 -18.501 -46
s-28.166 -18 -47.499 -18c-20 0 -36.333 6 -49 18s-19 27.333 -19 46c0 18 6.33301 33 19 45s29 18 49 18s36 -6 48 -18s18 -27 18 -45zM525.998 246c0 -74.667 -22.667 -136.333 -68 -185c-47.333 -50.667 -108.333 -76 -183 -76c-72.667 0 -130.667 22.333 -174 67
s-65 102.667 -65 174c0 74.667 23.333 136.5 70 185.5s106 73.5 178 73.5c73.333 0 132 -22.167 176 -66.5s66 -101.833 66 -172.5zM393.998 225.001c0 46 -11.332 85.833 -33.999 119.5s-52.334 50.5 -89.001 50.5c-32 0 -57.5 -13.833 -76.5 -41.5
s-28.5 -62.5 -28.5 -104.5c0 -46.667 11.5 -87.334 34.5 -122.001s52.5 -52 88.5 -52c32 0 57.5 14.333 76.5 43s28.5 64.334 28.5 107.001z" />
    <glyph glyph-name="divide" unicode="&#xf7;" horiz-adv-x="690" 
d="M408 477c0 -18.667 -6.33105 -33.667 -18.998 -45s-27.334 -17 -44.001 -17s-31.167 5.66699 -43.5 17s-18.5 26.333 -18.5 45s6 33.834 18 45.501s26.667 17.5 44 17.5s32.166 -5.83301 44.499 -17.5s18.5 -26.834 18.5 -45.501zM619.002 244h-550v86h550v-86z
M407.002 96c0 -18.667 -6.33301 -33.667 -19 -45s-27.334 -17 -44.001 -17c-17.333 0 -32 5.66699 -44 17s-18 26.333 -18 45s6 33.667 18 45s26.667 17 44 17c16.667 0 31.334 -5.66699 44.001 -17s19 -26.333 19 -45z" />
    <glyph glyph-name="oslash" unicode="&#xf8;" horiz-adv-x="562" 
d="M526 246c0 -74.667 -22.667 -136.333 -68 -185c-47.333 -50.667 -108.333 -76 -183 -76c-36.667 0 -70.667 6.66699 -102 20l-30 -49l-57 15l37 62c-58 44.667 -87 109 -87 193c0 74.667 23.333 136.5 70 185.5s106 73.5 178 73.5c36 0 69.667 -6.33301 101 -19l36 59
l57 -17l-42 -69c60 -44 90 -108.333 90 -193zM331 375.001c-17.333 13.333 -37.333 20 -60 20c-32 0 -57.5 -13.833 -76.5 -41.5s-28.5 -62.5 -28.5 -104.5c0 -38.667 8 -73 24 -103zM394 225.001c0 39.333 -8 73.666 -24 102.999l-142 -231c18 -14.667 38.333 -22 61 -22
c32 0 57.5 14.333 76.5 43s28.5 64.334 28.5 107.001z" />
    <glyph glyph-name="ugrave" unicode="&#xf9;" horiz-adv-x="544" 
d="M317 506l-226 177h167zM550 56l-192 -75l-1 73c-38 -46 -87 -69 -147 -69c-96.667 0 -145 55.333 -145 166v209c0 62 -22.333 97.333 -67 106h195v-287c0 -64.667 22.333 -97 67 -97c26 0 48.167 10.167 66.5 30.5s27.5 44.833 27.5 73.5v180c0 58.667 -17 92 -51 100
h178v-320c0 -60 18.333 -90 55 -90h14z" />
    <glyph glyph-name="uacute" unicode="&#xfa;" horiz-adv-x="544" 
d="M450 683l-225 -177l60 177h165zM550 56l-192 -75l-1 73c-38 -46 -87 -69 -147 -69c-96.667 0 -145 55.333 -145 166v209c0 62 -22.333 97.333 -67 106h195v-287c0 -64.667 22.333 -97 67 -97c26 0 48.167 10.167 66.5 30.5s27.5 44.833 27.5 73.5v180
c0 58.667 -17 92 -51 100h178v-320c0 -60 18.333 -90 55 -90h14z" />
    <glyph glyph-name="ucircumflex" unicode="&#xfb;" horiz-adv-x="544" 
d="M424 507l-158 74l-154 -74l154 204zM550 56l-192 -75l-1 73c-38 -46 -87 -69 -147 -69c-96.667 0 -145 55.333 -145 166v209c0 62 -22.333 97.333 -67 106h195v-287c0 -64.667 22.333 -97 67 -97c26 0 48.167 10.167 66.5 30.5s27.5 44.833 27.5 73.5v180
c0 58.667 -17 92 -51 100h178v-320c0 -60 18.333 -90 55 -90h14z" />
    <glyph glyph-name="udieresis" unicode="&#xfc;" horiz-adv-x="544" 
d="M428 615c0 -18.667 -6.16797 -34 -18.501 -46s-28.5 -18 -48.5 -18c-19.333 0 -35.166 6 -47.499 18s-18.5 27.333 -18.5 46c0 18 6 33 18 45s28 18 48 18s36.167 -6 48.5 -18s18.5 -27 18.5 -45zM237.999 615c0 -18.667 -6.16797 -34 -18.501 -46
s-28.166 -18 -47.499 -18c-20 0 -36.333 6 -49 18s-19 27.333 -19 46c0 18 6.33301 33 19 45s29 18 49 18s36 -6 48 -18s18 -27 18 -45zM549.998 56l-192 -75l-1 73c-38 -46 -87 -69 -147 -69c-96.667 0 -145 55.333 -145 166v209c0 62 -22.333 97.333 -67 106h195v-287
c0 -64.667 22.333 -97 67 -97c26 0 48.167 10.167 66.5 30.5s27.5 44.833 27.5 73.5v180c0 58.667 -17 92 -51 100h178v-320c0 -60 18.333 -90 55 -90h14z" />
    <glyph glyph-name="yacute" unicode="&#xfd;" horiz-adv-x="546" 
d="M496 683l-226 -177l60 177h166zM550 466c-11.333 -5.33301 -19 -9.99902 -23 -13.999c-17.333 -16 -33.333 -41.333 -48 -76l-139 -334c-25.333 -60.667 -54.166 -112 -86.499 -154s-63.166 -68.667 -92.499 -80l-140 95c19.333 -8 31.666 -10 36.999 -6
c5.33301 -0.666992 10.333 -1 15 -1c54 0 103.333 40.667 148 122l-146 363c-13.333 33.333 -30 57.333 -50 72l-27 13h243l-18 -8c-10.667 -7.33301 -16 -19.333 -16 -36c0 -10.667 4 -26.334 12 -47.001l77 -201l73 191c9.33301 24.667 14 43 14 55
c-0.666992 28 -14.334 43.333 -41.001 46h208z" />
    <glyph glyph-name="thorn" unicode="&#xfe;" horiz-adv-x="543" 
d="M510 252c0 -78 -21.167 -141.5 -63.5 -190.5s-97.833 -73.5 -166.5 -73.5c-36.667 0 -65 8.33301 -85 25v-89c0 -64 17 -99 51 -105h-222c29.333 6 44 41 44 105v593c0 72 -20.333 108 -61 108h-9l196 73v-274c34 40.667 78 61 132 61c50 0 91.667 -18.333 125 -55
c39.333 -42.667 59 -102 59 -178zM374 224c0 49.333 -8.16699 89 -24.5 119s-39.833 45 -70.5 45c-24 0 -44.167 -10.167 -60.5 -30.5s-24.5 -46.833 -24.5 -79.5v-131c0 -48 25 -72 75 -72c32.667 0 58.667 14.667 78 44c18 27.333 27 62.333 27 105z" />
    <glyph glyph-name="ydieresis" unicode="&#xff;" horiz-adv-x="546" 
d="M450 615c0 -18.667 -6.16797 -34 -18.501 -46s-28.5 -18 -48.5 -18c-19.333 0 -35.166 6 -47.499 18s-18.5 27.333 -18.5 46c0 18 6 33 18 45s28 18 48 18s36.167 -6 48.5 -18s18.5 -27 18.5 -45zM259.999 615c0 -18.667 -6.16797 -34 -18.501 -46
s-28.166 -18 -47.499 -18c-20 0 -36.333 6 -49 18s-19 27.333 -19 46c0 18 6.33301 33 19 45s29 18 49 18s36 -6 48 -18s18 -27 18 -45zM549.998 466c-11.333 -5.33301 -19 -9.99902 -23 -13.999c-17.333 -16 -33.333 -41.333 -48 -76l-139 -334
c-25.333 -60.667 -54.166 -112 -86.499 -154s-63.166 -68.667 -92.499 -80l-140 95c19.333 -8 31.666 -10 36.999 -6c5.33301 -0.666992 10.333 -1 15 -1c54 0 103.333 40.667 148 122l-146 363c-13.333 33.333 -30 57.333 -50 72l-27 13h243l-18 -8
c-10.667 -7.33301 -16 -19.333 -16 -36c0 -10.667 4 -26.334 12 -47.001l77 -201l73 191c9.33301 24.667 14 43 14 55c-0.666992 28 -14.334 43.333 -41.001 46h208z" />
    <glyph glyph-name="dotlessi" unicode="&#x131;" horiz-adv-x="266" 
d="M249 0l-232 0.000976562c34.667 6 52 41.333 52 106v218c0 63.333 -19.333 93.666 -58 90.999c-0.666992 1.33301 -5 1 -13 -1l199 75v-383c0 -64 17.333 -99.333 52 -106z" />
    <glyph glyph-name="Lslash" unicode="&#x141;" horiz-adv-x="547" 
d="M526 220l-33.999 -219.999h-458c32.667 7.33301 49 49 49 125v107l-67 -50v87l67 50v235c0 67.333 -17.667 104.666 -53 111.999h246c-36 -6.66699 -54 -44 -54 -112v-133l94 72v-87l-94 -71v-243h139c41.333 0 75 11 101 33c23.333 19.333 44.666 51 63.999 95z" />
    <glyph glyph-name="lslash" unicode="&#x142;" horiz-adv-x="261" 
d="M256 383l-59 -46v-231c0 -64.667 15.667 -100 47 -106h-226c34 6.66699 51 42 51 106v135l-63 -49v87l63 49v189c0 72 -20.667 108 -62 108h-9l199 73v-274l59 46v-87z" />
    <glyph glyph-name="OE" unicode="&#x152;" horiz-adv-x="952" 
d="M929 203l-33.001 -203.001h-428c-33.333 -10 -68.666 -15 -105.999 -15c-98.667 0 -178 33 -238 99c-58 62.667 -87 142.334 -87 239.001c0 101.333 32.5 186.333 97.5 255s148.5 103 250.5 103c38 0 73 -5 105 -15h394v-190c-13.333 66.667 -53 100 -119 100h-130v-194
h113c46 0 72.333 17.333 79 52v-194c-6 34 -31.667 51 -77 51h-115v-199l139 1c40 0 72 8.66699 96 26s43.667 45.333 59 84zM492.999 127.999v396c-35.333 37.333 -79.333 56 -132 56c-52 0 -94.333 -19.333 -127 -58c-34.667 -41.333 -52 -97.333 -52 -168
c0 -80.667 18.167 -145.167 54.5 -193.5s85.833 -72.5 148.5 -72.5c42.667 0 78.667 13.333 108 40z" />
    <glyph glyph-name="oe" unicode="&#x153;" horiz-adv-x="851" 
d="M820 150c-20.667 -110 -88.6689 -164.999 -204.002 -164.999c-68 0 -122.333 24 -163 72c-46.667 -48 -106 -72 -178 -72c-72.667 0 -130.667 22.333 -174 67s-65 102.667 -65 174c0 74.667 23.333 136.5 70 185.5s106 73.5 178 73.5
c74.667 0 134.334 -23.333 179.001 -70c41.333 46.667 93.333 70 156 70c61.333 0 108.833 -23.333 142.5 -70s50.834 -112.334 51.501 -197.001h-294l3 -12c8 -38 25.5 -68.333 52.5 -91s58.833 -34 95.5 -34c60.667 0 110.667 23 150 69zM691.998 290.001
c0 33.333 -7 60.833 -21 82.5s-33 32.5 -57 32.5c-25.333 0 -47 -11.167 -65 -33.5s-28 -49.5 -30 -81.5h173zM393.998 225.001c0 46 -11.332 85.833 -33.999 119.5s-52.334 50.5 -89.001 50.5c-32 0 -57.5 -13.833 -76.5 -41.5s-28.5 -62.5 -28.5 -104.5
c0 -46.667 11.5 -87.334 34.5 -122.001s52.5 -52 88.5 -52c32 0 57.5 14.333 76.5 43s28.5 64.334 28.5 107.001z" />
    <glyph glyph-name="Scaron" unicode="&#x160;" horiz-adv-x="514" 
d="M424 920l-154 -204l-158 204l158 -74zM478 185c0 -63.333 -23.334 -112.999 -70.001 -148.999c-44 -34 -102.333 -51 -175 -51c-74.667 0 -138 16.667 -190 50v212c16 -56 43 -98.333 81 -127c32.667 -24.667 70.334 -37 113.001 -37c30.667 0 56 7 76 21
s30 32.667 30 56c0 30 -16.667 57 -50 81c-6.66699 4.66699 -43 24.667 -109 60c-43.333 23.333 -75 46 -95 68c-28.667 31.333 -43 68.666 -43 111.999c0 60.667 21.5 109 64.5 145s98.5 54 166.5 54c62 0 114 -15 156 -45v-176c-13.333 42 -36.333 73.667 -69 95
c-28 19.333 -60.333 29 -97 29c-30.667 0 -54 -7 -70 -21s-24 -31 -24 -51c0 -32.667 26.333 -63 79 -91c89.333 -47.333 138.333 -74.333 147 -81c52.667 -40 79 -91.333 79 -154z" />
    <glyph glyph-name="scaron" unicode="&#x161;" horiz-adv-x="397" 
d="M360 719l-154 -204l-158 205l158 -75zM372 133c0 -46 -16.999 -82.167 -50.999 -108.5s-79.333 -39.5 -136 -39.5c-66 0 -115.333 13.333 -148 40v165c9.33301 -42 29.666 -73.333 60.999 -94c25.333 -16.667 54.333 -25 87 -25c45.333 0 68 14.667 68 44
c0 18 -11.333 34 -34 48l-85 43c-61.333 33.333 -92 77 -92 131c0 44.667 15.667 80.667 47 108s75.333 41 132 41c44.667 0 84.334 -9.66699 119.001 -29v-145c-6 26 -20.667 46.833 -44 62.5s-49.333 23.5 -78 23.5c-39.333 0 -59 -14 -59 -42c0 -16 8.66699 -30 26 -42
c9.33301 -6.66699 32.333 -18.667 69 -36c39.333 -18.667 67.666 -37.667 84.999 -57c22 -24 33 -53.333 33 -88z" />
    <glyph glyph-name="Ydieresis" unicode="&#x178;" horiz-adv-x="670" 
d="M522 788c0 -18.667 -6.16797 -34 -18.501 -46s-28.5 -18 -48.5 -18c-19.333 0 -35.166 6 -47.499 18s-18.5 27.333 -18.5 46c0 18 6 33 18 45s28 18 48 18s36.167 -6 48.5 -18s18.5 -27 18.5 -45zM331.999 788c0 -18.667 -6.16797 -34 -18.501 -46
s-28.166 -18 -47.499 -18c-20 0 -36.333 6 -49 18s-19 27.333 -19 46c0 18 6.33301 33 19 45s29 18 49 18s36 -6 48 -18s18 -27 18 -45zM670.998 666c-8 -2.66699 -17.002 -8.33203 -27.002 -16.999c-23.333 -20 -48.666 -53.333 -75.999 -100l-160 -269v-168
c0 -68 17.333 -105.333 52 -112h-250c36 6.66699 54 44 54 112v163l-158 276c-39.333 69.333 -74.666 107.666 -105.999 114.999h272c-21.333 -2.66699 -32 -15.334 -32 -38.001c0 -19.333 8.33301 -43.333 25 -72l95 -164l85 147c24 41.333 36 71 36 89
c0 22.667 -10 35.334 -30 38.001h220z" />
    <glyph glyph-name="Zcaron" unicode="&#x17d;" horiz-adv-x="609" 
d="M461 894l-154 -204l-158 204l158 -74zM584 231l-21 -231.001h-541l325 575h-161c-45.333 0 -79.333 -10 -102 -30c-18.667 -16.667 -32.667 -45 -42 -85v206h517l-322 -574h186c40 0 72.667 11.667 98 35c22.667 20.667 43.667 55.334 63 104.001z" />
    <glyph glyph-name="zcaron" unicode="&#x17e;" horiz-adv-x="474" 
d="M388 719l-154 -204l-158 205l158 -75zM446 0h-421.999l227 391h-109c-60 0 -95 -29.667 -105 -89v164h400l-225 -386h137c55.333 0 87.666 27 96.999 81v-161z" />
    <glyph glyph-name="florin" unicode="&#x192;" 
d="M517 661l-33.999 -101.999c-20 14.667 -44.667 22 -74 22c-30.667 0 -51.334 -20.333 -62.001 -61c-2.66699 -10 -7.33398 -48.333 -14.001 -115h94l-6 -83h-95l-21 -208c-9.33301 -91.333 -31 -158.333 -65 -201c-36 -45.333 -88 -68 -156 -68
c-25.333 0 -56.666 7 -93.999 21l30 107c2.66699 -4 10.667 -9 24 -15c16.667 -8.66699 31.334 -13 44.001 -13c21.333 0 37.666 9.33301 48.999 28c12.667 21.333 21.667 58.666 27 111.999l24 237h-86l6 83h87c18.667 184.667 91 277 217 277c40 0 75 -7 105 -21z" />
    <glyph glyph-name="circumflex" unicode="&#x2c6;" horiz-adv-x="477" 
d="M396 507l-158 74l-154 -74l154 204z" />
    <glyph glyph-name="caron" unicode="&#x2c7;" horiz-adv-x="477" 
d="M383 719l-154 -204l-158 205l158 -75z" />
    <glyph glyph-name="breve" unicode="&#x2d8;" horiz-adv-x="477" 
d="M361 697c0 -50 -12.665 -90 -37.998 -120c-23.333 -26.667 -51.333 -40 -84 -40s-60.334 13.333 -83.001 40c-25.333 30 -38 70 -38 120c25.333 -49.333 65.666 -74 120.999 -74c54 0 94.667 24.667 122 74z" />
    <glyph glyph-name="dotaccent" unicode="&#x2d9;" horiz-adv-x="477" 
d="M306 615c0 -18.667 -6.16699 -34 -18.5 -46s-28.5 -18 -48.5 -18s-36.167 6 -48.5 18s-18.5 27.333 -18.5 46c0 18 6.16699 33 18.5 45s28.5 18 48.5 18s36.167 -6 48.5 -18s18.5 -27 18.5 -45z" />
    <glyph glyph-name="ring" unicode="&#x2da;" horiz-adv-x="477" 
d="M324 615c0 -30 -9.5 -53.833 -28.5 -71.5s-42.167 -26.5 -69.5 -26.5s-50.666 8.83301 -69.999 26.5s-29 41.5 -29 71.5c0 29.333 9.66699 52.833 29 70.5s42.666 26.5 69.999 26.5s50.333 -8.33301 69 -25c19.333 -18.667 29 -42.667 29 -72zM277 615
c0 16.667 -4.83301 29.833 -14.5 39.5s-21.834 14.5 -36.501 14.5s-27.167 -5 -37.5 -15s-15.5 -23 -15.5 -39c0 -16.667 5.16699 -30 15.5 -40s22.833 -15 37.5 -15s26.834 5 36.501 15s14.5 23.333 14.5 40z" />
    <glyph glyph-name="ogonek" unicode="&#x2db;" horiz-adv-x="477" 
d="M335 -110c-18.667 -49.333 -53.001 -74 -103.001 -74c-25.333 0 -46.666 7.83301 -63.999 23.5s-26 36.5 -26 62.5c0 32.667 17.333 68 52 106h58c-23.333 -32 -35 -58.667 -35 -80c0 -34 20.333 -51 61 -51c18 0 37 4.33301 57 13z" />
    <glyph glyph-name="tilde" unicode="&#x2dc;" horiz-adv-x="477" 
d="M394 640c0 -26 -8.33398 -49 -25.001 -69s-38 -30 -64 -30c-18 0 -43.5 9.5 -76.5 28.5s-56.5 28.5 -70.5 28.5c-31.333 0 -47.666 -23.667 -48.999 -71c-15.333 16.667 -23 37.334 -23 62.001c0 25.333 7.66699 47.333 23 66s36 28 62 28
c19.333 0 46.833 -9.33301 82.5 -28s59.167 -28 70.5 -28c31.333 0 47.333 24 48 72c14.667 -16.667 22 -36.334 22 -59.001z" />
    <glyph glyph-name="hungarumlaut" unicode="&#x2dd;" horiz-adv-x="477" 
d="M457 677l-212 -171l60 171h152zM267 677l-213 -171l61 171h152z" />
    <glyph glyph-name="endash" unicode="&#x2013;" horiz-adv-x="658" 
d="M624 195h-590v82h590v-82z" />
    <glyph glyph-name="emdash" unicode="&#x2014;" horiz-adv-x="1058" 
d="M1024 195h-990v82h990v-82z" />
    <glyph glyph-name="quoteleft" unicode="&#x2018;" horiz-adv-x="262" 
d="M233 689c-30 -13.333 -55.332 -34.334 -75.999 -63.001c-22 -30.667 -33 -61.667 -33 -93c0 -12.667 1.33301 -22.667 4 -30c5.33301 2 10.666 3 15.999 3c21.333 0 38.666 -7.33301 51.999 -22c11.333 -13.333 17 -29.666 17 -48.999c0 -22.667 -7.33301 -42 -22 -58
c-16 -18 -37.333 -27 -64 -27c-31.333 0 -56 12.667 -74 38s-27 56.333 -27 93c0 52 16.333 97.667 49 137c38.667 45.333 91.334 69 158.001 71z" />
    <glyph glyph-name="quoteright" unicode="&#x2019;" horiz-adv-x="262" 
d="M235 550c0 -52 -16.665 -97.666 -49.998 -136.999c-38.667 -45.333 -91.334 -69 -158.001 -71c30 13.333 55.833 34.833 77.5 64.5s32.5 60.167 32.5 91.5c0 12.667 -1.33301 22.667 -4 30c-5.33301 -2 -11 -3 -17 -3c-21.333 0 -38.333 7.33301 -51 22
c-11.333 12.667 -17 29 -17 49c0 22.667 7.5 42.5 22.5 59.5s35.833 25.5 62.5 25.5c31.333 0 56.666 -13 75.999 -39c17.333 -24.667 26 -55.334 26 -92.001z" />
    <glyph glyph-name="quotesinglbase" unicode="&#x201a;" horiz-adv-x="262" 
d="M228 22c0 -52 -16.3311 -97.666 -48.998 -136.999c-38.667 -45.333 -91.334 -69 -158.001 -71c30 13.333 55.667 34.833 77 64.5s32 60.167 32 91.5c0 12 -1.33301 21.667 -4 29c-5.33301 -2 -11 -3 -17 -3c-21.333 0 -38 7 -50 21s-18 31 -18 51
c0 22.667 7.5 42.5 22.5 59.5s35.833 25.5 62.5 25.5c31.333 0 56.666 -13 75.999 -39c17.333 -24.667 26 -55.334 26 -92.001z" />
    <glyph glyph-name="quotedblleft" unicode="&#x201c;" horiz-adv-x="530" 
d="M495 689c-30 -13.333 -55.668 -34.333 -77.001 -63c-22 -30.667 -33 -61.667 -33 -93c0 -12.667 1.33301 -22.667 4 -30c5.33301 2 11 3 17 3c21.333 0 38 -6.83301 50 -20.5s18 -30.5 18 -50.5c0 -22.667 -7.33301 -42 -22 -58c-15.333 -18 -36.333 -27 -63 -27
c-31.333 0 -56 12.667 -74 38s-27 56.333 -27 93c0 52 16.333 97.667 49 137c38.667 45.333 91.334 69 158.001 71zM257.999 689c-30 -13.333 -55.668 -34.333 -77.001 -63c-22 -30.667 -33 -61.667 -33 -93c0 -12.667 1.33301 -22.667 4 -30c5.33301 2 11 3 17 3
c21.333 0 38 -6.83301 50 -20.5s18 -30.5 18 -50.5c0 -22.667 -7.33301 -42 -22 -58c-15.333 -18 -36.333 -27 -63 -27c-31.333 0 -56 12.667 -74 38s-27 56.333 -27 93c0 52 16.333 97.667 49 137c38.667 45.333 91.334 69 158.001 71z" />
    <glyph glyph-name="quotedblright" unicode="&#x201d;" horiz-adv-x="530" 
d="M479 550c0 -52 -16.334 -97.667 -49.001 -137c-38.667 -45.333 -91.334 -69 -158.001 -71c30 13.333 55.667 34.833 77 64.5s32 60.167 32 91.5c0 12.667 -1.33301 22.667 -4 30c-5.33301 -2 -10.666 -3 -15.999 -3c-21.333 0 -38.166 7 -50.499 21
s-18.5 30.667 -18.5 50c0 22.667 7.66699 42.5 23 59.5s36.333 25.5 63 25.5c31.333 0 56 -12.667 74 -38s27 -56.333 27 -93zM241.999 550c0 -52 -16.332 -97.667 -48.999 -137c-38.667 -45.333 -91.334 -69 -158.001 -71c30 13.333 55.833 34.833 77.5 64.5
s32.5 60.167 32.5 91.5c0 12.667 -1.33301 22.667 -4 30c-5.33301 -2 -11 -3 -17 -3c-21.333 0 -38.333 7.33301 -51 22c-11.333 12.667 -17 29 -17 49c0 22.667 7.5 42.5 22.5 59.5s35.833 25.5 62.5 25.5c31.333 0 56 -12.667 74 -38s27 -56.333 27 -93z" />
    <glyph glyph-name="quotedblbase" unicode="&#x201e;" horiz-adv-x="509" 
d="M468 22c0 -52 -16.332 -97.667 -48.999 -137c-38.667 -45.333 -91.334 -69 -158.001 -71c30 13.333 55.667 34.833 77 64.5s32 60.167 32 91.5c0 13.333 -1 23 -3 29c-5.33301 -2 -11 -3 -17 -3c-21.333 0 -38 7 -50 21s-18 31 -18 51c0 22.667 7.5 42.5 22.5 59.5
s35.833 25.5 62.5 25.5c31.333 0 56 -12.667 74 -38s27 -56.333 27 -93zM239.001 22c0 -52 -16.332 -97.667 -48.999 -137c-38.667 -45.333 -91.334 -69 -158.001 -71c30 13.333 55.833 34.833 77.5 64.5s32.5 60.167 32.5 91.5c0 12 -1.33301 21.667 -4 29
c-5.33301 -2 -11 -3 -17 -3c-21.333 0 -38 7 -50 21s-18 31 -18 51c0 22.667 7.5 42.5 22.5 59.5s35.833 25.5 62.5 25.5c31.333 0 56 -12.667 74 -38s27 -56.333 27 -93z" />
    <glyph glyph-name="dagger" unicode="&#x2020;" horiz-adv-x="577" 
d="M513 360c-7.33301 16.667 -32.333 25 -75 25h-102v-366c0 -55.333 -7.66699 -106.666 -23 -153.999l-25 -58l-24 58c-15.333 47.333 -23 98.666 -23 153.999v366h-102c-44 0 -68.667 -8.33301 -74 -25v135c6.66699 -16 30.667 -24 72 -24h104v82
c0 69.333 -12 107 -36 113h166c-23.333 -7.33301 -35 -45 -35 -113v-82h104c42 0 66.333 8 73 24v-135z" />
    <glyph glyph-name="daggerdbl" unicode="&#x2021;" horiz-adv-x="577" 
d="M512 -11c-6.66699 16.667 -30.666 25 -71.999 25h-104v-82c0 -69.333 12 -107 36 -113h-166c23.333 7.33301 35 45 35 113v82h-104c-42 0 -66 -8.33301 -72 -25v135c7.33301 -16.667 32.333 -25 75 -25h101v287h-102c-44 0 -68.667 -8.33301 -74 -25v135
c6.66699 -16.667 30.667 -25 72 -25h104v82c0 69.333 -12 107 -36 113h166c-23.333 -7.33301 -35 -45 -35 -113v-82h104c42 0 66 8.33301 72 25v-135c-6.66699 16.667 -31.334 25 -74.001 25h-102v-287h102c44 0 68.667 8.33301 74 25v-135z" />
    <glyph glyph-name="bullet" unicode="&#x2022;" horiz-adv-x="539" 
d="M434 288c0 -45.333 -15.333 -82.998 -46 -112.998s-70 -45 -118 -45s-87.667 15.167 -119 45.5s-47 68.166 -47 113.499s15.5 83.166 46.5 113.499s70.833 45.5 119.5 45.5c48 0 87.333 -15.333 118 -46s46 -68.667 46 -114z" />
    <glyph glyph-name="ellipsis" unicode="&#x2026;" horiz-adv-x="1095" 
d="M999 70c0 -24 -8.16699 -44 -24.5 -60s-37.5 -24 -63.5 -24s-47 8 -63 24s-24 36 -24 60s8 44 24 60s37 24 63 24s47.167 -8 63.5 -24s24.5 -36 24.5 -60zM635 70c0 -24 -8 -44 -24 -60s-37 -24 -63 -24s-47.167 8 -63.5 24s-24.5 36 -24.5 60s8.16699 44 24.5 60
s37.5 24 63.5 24s47 -8 63 -24s24 -36 24 -60zM271 70c0 -24 -8 -44 -24 -60s-37 -24 -63 -24s-47.167 8 -63.5 24s-24.5 36 -24.5 60s8.16699 44 24.5 60s37.5 24 63.5 24s47 -8 63 -24s24 -36 24 -60z" />
    <glyph glyph-name="perthousand" unicode="&#x2030;" horiz-adv-x="1084" 
d="M1060 169c0 -49.333 -13 -91 -39 -125c-29.333 -38 -68.333 -57 -117 -57s-87.334 19 -116.001 57c-26 34 -39 75.667 -39 125c0 48.667 13 90 39 124c28.667 38 67.334 57 116.001 57s87.667 -19 117 -57c26 -34 39 -75.333 39 -124zM715 169
c0 -48.667 -13.332 -90.332 -39.999 -124.999c-29.333 -38 -68.333 -57 -117 -57s-87.334 19 -116.001 57c-25.333 34 -38 75.667 -38 125s13 90.666 39 123.999c28 38 66.333 57 115 57c49.333 0 88.333 -19 117 -57c26.667 -34 40 -75.333 40 -124zM620.001 666.002
l-418 -666h-80l419 666h79zM337.001 501.002c0 -49.333 -13.333 -91 -40 -125c-29.333 -38.667 -68.333 -58 -117 -58s-87.334 19.333 -116.001 58c-26 34 -39 75.667 -39 125c0 48.667 13 90 39 124c28.667 37.333 67.334 56 116.001 56c49.333 0 88.333 -18.667 117 -56
c26.667 -34 40 -75.333 40 -124zM960.001 171.002c0 76 -18.667 114 -56 114s-56 -37.667 -56 -113c0 -76 19 -114 57 -114c36.667 0 55 37.667 55 113zM615.001 171.002c0 76 -18.667 114 -56 114s-56 -37.667 -56 -113c0 -76 19 -114 57 -114c36.667 0 55 37.667 55 113z
M237.001 500.002c0 75.333 -19 113 -57 113c-36.667 0 -55 -37.333 -55 -112c0 -76 18.667 -114 56 -114s56 37.667 56 113z" />
    <glyph glyph-name="guilsinglleft" unicode="&#x2039;" horiz-adv-x="253" 
d="M234 63h-97l-113 188l112 189h98l-114 -189z" />
    <glyph glyph-name="guilsinglright" unicode="&#x203a;" horiz-adv-x="253" 
d="M229 252l-113 -188h-96l113 188l-113 188h96z" />
    <glyph glyph-name="fraction" unicode="&#x2044;" horiz-adv-x="166" 
d="M308 681l-383 -681h-66l385 681h64z" />
    <glyph glyph-name="Euro" unicode="&#x20ac;" horiz-adv-x="570" 
d="M515 645l-45.999 -114.002c-26 34.667 -59.667 52 -101 52c-36.667 0 -68.334 -14 -95.001 -42c-24 -25.333 -41.667 -59.333 -53 -102h212l-28 -70h-195c-0.666992 -10.667 -1 -22.667 -1 -36c0 -20.667 0.333008 -35 1 -43h164l-28 -70h-123
c24.667 -88.667 72 -133 142 -133c29.333 0 59.333 10.333 90 31c28.667 20 48.334 42.333 59.001 67v-129c-16 -20 -38.667 -36.667 -68 -50c-31.333 -14 -65 -21 -101 -21c-70.667 0 -129.5 20.667 -176.5 62s-78.167 99 -93.5 173h-68v70h58
c-0.666992 10.667 -1 22.334 -1 35.001c0 14.667 0.666992 29.334 2 44.001h-59v70h71c17.333 70.667 48.666 127 93.999 169c53.333 48.667 121 73 203 73c60.667 0 107.667 -12 141 -36z" />
    <glyph glyph-name="trademark" unicode="&#x2122;" horiz-adv-x="624" 
d="M605 404l-105 0.000976562c13.333 4 20 20 20 48v157l-81 -215l-81 214v-153c0 -29.333 7.33301 -46.333 22 -51h-92c15.333 4.66699 23 22 23 52v165c0 24.667 -7.66699 39.667 -23 45h114l49 -125l46 125h108c-14.667 -16.667 -22 -32 -22 -46v-169
c0 -26.667 7.33301 -42.334 22 -47.001zM260 576.001c-2 11.333 -6.66602 22 -13.999 32s-16.333 15 -27 15h-44v-172c0 -27.333 6.66699 -43 20 -47h-104c13.333 4 20 19.667 20 47v172h-43c-18.667 0 -32.334 -15.667 -41.001 -47l2 90h228z" />
    <glyph glyph-name="notequal" unicode="&#x2260;" horiz-adv-x="875" 
 />
    <glyph glyph-name="fi" unicode="&#xf001;" horiz-adv-x="608" 
d="M545 613c0 -22 -7.16699 -40 -21.5 -54s-33.166 -21 -56.499 -21s-42.166 7 -56.499 21s-21.5 32 -21.5 54c0 21.333 7.16699 39.166 21.5 53.499s33.166 21.5 56.499 21.5s42.166 -7.16699 56.499 -21.5s21.5 -32.166 21.5 -53.499zM591 0h-232
c34.667 6 52 41.333 52 106v218c0 60 -18.333 90 -55 90h-13l196 75v-383c0 -64 17.333 -99.333 52 -106zM327 384h-109v-266c0 -70.667 17 -110 51 -118h-231c34.667 6 52 45.333 52 118v266h-78v82h78v29c0 66.667 17.333 118 52 154c30.667 32 71.667 48 123 48
c4 0 24.667 -2.33301 62 -7v-119c-14.667 26 -35 39 -61 39c-32 0 -48 -27.667 -48 -83v-61h109v-82z" />
    <glyph glyph-name="fl" unicode="&#xf002;" horiz-adv-x="608" 
d="M591 0h-230c34 6.66699 51 42 51 106v411c0 72 -19.667 108 -59 108h-9l196 73v-592c0 -64.667 17 -100 51 -106zM329 384h-110.998v-266c0 -70.667 17 -110 51 -118h-231c34.667 6 52 45.333 52 118v266h-78v82h78v29c0 66.667 17.333 118 52 154
c31.333 32 72.666 48 123.999 48c4.66699 0 25.667 -2.33301 63 -7v-119c-14.667 26 -35.334 39 -62.001 39c-32.667 0 -49 -27.667 -49 -83v-61h111v-82z" />
    <glyph glyph-name=".null" horiz-adv-x="0" 
 />
    <glyph glyph-name="nonmarkingreturn" horiz-adv-x="213" 
 />
    </font>
</defs>
</svg>
